<svg width="12" height="11" viewBox="0 0 12 11" fill="none" xmlns="http://www.w3.org/2000/svg">
<path opacity="0.75" d="M6 10.34C5.78667 10.34 5.62667 10.28 5.52 10.16C5.41333 10.04 5.36 9.88 5.36 9.68V5.88H1.62C1.42 5.88 1.26 5.82667 1.14 5.72C1.03333 5.61333 0.98 5.46 0.98 5.26C0.98 5.06 1.03333 4.90667 1.14 4.8C1.26 4.69333 1.42 4.64 1.62 4.64H5.36V0.959999C5.36 0.746666 5.41333 0.586666 5.52 0.48C5.62667 0.359999 5.78667 0.299999 6 0.299999C6.21333 0.299999 6.37333 0.359999 6.48 0.48C6.58667 0.586666 6.64 0.746666 6.64 0.959999V4.64H10.38C10.58 4.64 10.7333 4.69333 10.84 4.8C10.96 4.90667 11.02 5.06 11.02 5.26C11.02 5.46 10.96 5.61333 10.84 5.72C10.7333 5.82667 10.58 5.88 10.38 5.88H6.64V9.68C6.64 9.88 6.58667 10.04 6.48 10.16C6.37333 10.28 6.21333 10.34 6 10.34Z" fill="#22272E"/>
</svg>
