<svg width="15" height="18" viewBox="0 0 15 18" fill="none" xmlns="http://www.w3.org/2000/svg">
<path d="M11.9817 9.91653C11.9986 8.60775 12.7014 7.36936 13.8165 6.68385C13.113 5.67925 11.9348 5.0423 10.709 5.00394C9.40164 4.86671 8.13417 5.78628 7.46793 5.78628C6.78881 5.78628 5.76304 5.01757 4.65846 5.0403C3.21868 5.08681 1.87645 5.90539 1.17597 7.16414C-0.329785 9.77112 0.793374 13.6025 2.23576 15.7098C2.95742 16.7417 3.80083 17.8943 4.90442 17.8534C5.98434 17.8086 6.38767 17.1648 7.69124 17.1648C8.9827 17.1648 9.36111 17.8534 10.4871 17.8275C11.6459 17.8086 12.376 16.791 13.0723 15.7493C13.5909 15.0141 13.9898 14.2015 14.2545 13.3416C12.8927 12.7656 11.9833 11.3951 11.9817 9.91653Z" fill="white"/>
<path d="M9.85491 3.61809C10.4867 2.8596 10.798 1.88469 10.7226 0.900391C9.75734 1.00178 8.86568 1.46313 8.22531 2.19252C7.59912 2.90517 7.27324 3.86292 7.33485 4.8096C8.3005 4.81954 9.2498 4.3707 9.85491 3.61809Z" fill="white"/>
</svg>
