<svg width="899" height="773" viewBox="0 0 899 773" fill="none" xmlns="http://www.w3.org/2000/svg">
<path d="M469.736 725.803C674.215 725.803 839.979 712.73 839.979 696.604C839.979 680.478 674.215 667.406 469.736 667.406C265.257 667.406 99.4941 680.478 99.4941 696.604C99.4941 712.73 265.257 725.803 469.736 725.803Z" fill="#CCE5FF"/>
<path opacity="0.3" d="M469.736 725.803C674.215 725.803 839.979 712.73 839.979 696.604C839.979 680.478 674.215 667.406 469.736 667.406C265.257 667.406 99.4941 680.478 99.4941 696.604C99.4941 712.73 265.257 725.803 469.736 725.803Z" fill="white"/>
<path d="M866.182 745.942H39.2402V772.26H866.182V745.942Z" fill="#CCE5FF"/>
<path opacity="0.5" d="M866.182 745.942H39.2402V772.26H866.182V745.942Z" fill="white"/>
<path d="M90.549 566.199C93.5334 563.92 96.1636 561.212 98.3538 558.162C99.1712 556.772 99.6775 555.222 99.8379 553.618C99.9983 552.014 99.809 550.394 99.283 548.87C98.9688 548.195 98.5165 547.594 97.9552 547.105C97.394 546.616 96.7363 546.25 96.0247 546.031C95.3131 545.812 94.5635 545.745 93.8243 545.834C93.0852 545.923 92.3729 546.166 91.7336 546.547C87.9241 548.87 87.506 557.024 88.4816 560.903C88.5745 561.135 90.5025 566.245 90.549 566.199Z" fill="#2E353A"/>
<path d="M33.216 606.988C33.4715 607.22 37.8617 610.426 37.8617 610.356C37.8617 610.286 40.3239 602.853 39.929 599.346C39.8548 597.738 39.432 596.166 38.69 594.738C37.948 593.31 36.9045 592.061 35.6317 591.076C35.0015 590.677 34.2942 590.414 33.5558 590.305C32.8174 590.197 32.0645 590.245 31.3459 590.447C30.6273 590.648 29.9591 590.999 29.3849 591.475C28.8106 591.952 28.3431 592.544 28.0127 593.213C26.1312 597.302 30.2659 604.27 33.216 606.988Z" fill="#2E353A"/>
<path d="M163.155 573.609C163.155 573.609 140.46 597.046 140.577 625.827C140.693 654.607 163.596 677.859 163.596 677.859C163.596 677.859 186.291 654.421 186.175 625.641C186.058 596.86 163.155 573.609 163.155 573.609Z" fill="#2E353A"/>
<path d="M130.778 643.063C131.079 642.74 131.358 642.399 131.614 642.041C132.593 640.752 133.278 639.266 133.623 637.685C133.968 636.104 133.964 634.468 133.612 632.888C133.386 632.176 133.011 631.519 132.514 630.961C132.017 630.403 131.408 629.956 130.726 629.649C130.044 629.342 129.306 629.183 128.558 629.181C127.811 629.178 127.071 629.334 126.388 629.636C123.322 631.077 121.742 636.024 121.487 640.066C120.255 639.787 119.164 639.578 118.188 639.416C117.793 638.487 117.375 637.581 116.957 636.652C116.539 635.722 116.19 634.724 115.796 633.748C115.261 632.308 114.773 630.798 114.286 629.288C117.533 627.963 120.558 626.145 123.252 623.899C124.413 622.774 125.315 621.411 125.897 619.903C126.479 618.394 126.725 616.778 126.62 615.165C126.506 614.426 126.236 613.72 125.83 613.092C125.424 612.464 124.891 611.928 124.264 611.521C123.637 611.113 122.931 610.842 122.192 610.725C121.454 610.609 120.699 610.65 119.977 610.844C115.679 612.122 113.147 619.811 113.008 623.829C113.008 623.969 113.008 624.805 113.147 625.827C112.729 624.34 112.288 622.854 111.893 621.344C110.778 617.023 109.803 612.61 108.78 608.173C108.571 607.244 108.339 606.338 108.13 605.409C111.49 604.049 114.623 602.184 117.422 599.881C118.592 598.749 119.498 597.373 120.076 595.852C120.654 594.33 120.89 592.7 120.766 591.077C120.655 590.339 120.389 589.633 119.985 589.005C119.581 588.377 119.049 587.841 118.424 587.433C117.799 587.025 117.095 586.754 116.358 586.638C115.62 586.521 114.867 586.561 114.146 586.756C109.826 588.034 107.178 595.746 107.178 599.764C107.178 599.904 107.178 600.926 107.364 602.087C106.783 599.764 106.179 597.325 105.482 594.979C104.335 590.942 102.923 586.984 101.254 583.133C104.696 581.743 107.907 579.839 110.778 577.488C111.943 576.366 112.848 575.003 113.43 573.494C114.012 571.985 114.256 570.368 114.146 568.754C114.032 568.015 113.763 567.309 113.357 566.681C112.951 566.053 112.417 565.517 111.79 565.11C111.163 564.702 110.457 564.431 109.718 564.315C108.98 564.198 108.225 564.239 107.503 564.434C103.206 565.711 100.674 573.423 100.534 577.418C100.534 577.72 100.859 581.391 101.022 582.691V582.552C99.2779 578.817 97.2104 575.242 94.8433 571.867C92.7342 568.851 90.454 565.958 88.014 563.202C85.6912 560.624 83.5773 558.417 81.6029 556.466C80.5344 555.421 79.5356 554.468 78.5832 553.609C78.5832 553.609 76.4926 548.592 76.2603 548.29C74.2394 544.805 68.2929 539.277 63.9026 540.229C63.1803 540.409 62.5039 540.739 61.917 541.197C61.33 541.655 60.8458 542.231 60.4955 542.888C60.1452 543.544 59.9366 544.267 59.8833 545.01C59.83 545.752 59.9331 546.498 60.186 547.198C60.8668 548.665 61.8598 549.965 63.0955 551.009C64.3313 552.052 65.7801 552.812 67.3405 553.237C70.9088 553.911 74.559 554.036 78.1651 553.609C79.1174 554.538 80.1395 555.514 81.2312 556.652C83.1592 558.626 85.3195 560.903 87.4798 563.504C88.0605 564.201 88.6644 564.968 89.2451 565.827C87.9908 564.805 86.2486 563.388 86.0628 563.272C82.6714 561.135 74.8666 558.952 71.4055 561.832C70.8523 562.333 70.4102 562.944 70.1076 563.626C69.805 564.308 69.6487 565.046 69.6487 565.792C69.6487 566.539 69.805 567.277 70.1076 567.959C70.4102 568.641 70.8523 569.252 71.4055 569.753C72.6897 570.732 74.1705 571.421 75.7462 571.774C77.322 572.127 78.9553 572.135 80.5344 571.797C84.0325 570.772 87.3481 569.204 90.3601 567.151C91.6609 568.824 92.9385 570.543 94.1696 572.424C96.4376 575.803 98.3968 579.379 100.023 583.109C100.023 583.318 100.186 583.551 100.279 583.76C99.7445 583.156 96.6086 579.95 96.3531 579.764C93.2172 577.256 85.6911 574.236 81.9513 576.698C81.3385 577.127 80.8226 577.68 80.4369 578.321C80.0513 578.962 79.8045 579.676 79.7125 580.419C79.6205 581.161 79.6855 581.914 79.9031 582.63C80.1207 583.345 80.4861 584.007 80.9757 584.573C82.144 585.689 83.5399 586.538 85.0676 587.063C86.5953 587.589 88.2185 587.777 89.8259 587.616C93.4973 586.914 97.0437 585.669 100.348 583.922C101.88 587.706 103.16 591.585 104.181 595.537C104.971 598.44 105.621 601.414 106.272 604.41C105.552 603.62 102.625 600.647 102.393 600.461C99.2567 597.953 91.7306 594.933 87.9676 597.395C87.3565 597.826 86.8426 598.38 86.4591 599.022C86.0756 599.663 85.831 600.378 85.7413 601.121C85.6515 601.863 85.7185 602.616 85.938 603.33C86.1574 604.045 86.5244 604.706 87.0152 605.27C88.179 606.392 89.5743 607.246 91.1032 607.771C92.6321 608.297 94.2575 608.482 95.8653 608.313C99.515 607.624 103.039 606.387 106.318 604.642C106.62 606.013 106.899 607.36 107.178 608.731C108.107 613.167 109.013 617.627 110.035 621.994C110.383 623.504 110.778 624.991 111.196 626.477C110.081 625.316 108.037 623.272 107.851 623.109C104.715 620.601 97.1894 617.581 93.4263 620.066C92.8159 620.495 92.3023 621.047 91.919 621.686C91.5357 622.326 91.2912 623.039 91.2014 623.78C91.1116 624.52 91.1785 625.271 91.3977 625.984C91.6169 626.697 91.9836 627.356 92.4739 627.918C93.6378 629.04 95.0331 629.894 96.562 630.419C98.0908 630.945 99.7162 631.13 101.324 630.961C104.856 630.315 108.27 629.14 111.452 627.476C112.133 629.938 112.907 632.354 113.775 634.724C114.17 635.722 114.495 636.791 114.913 637.743L115.54 639.253H114.681C114.681 639.253 114.681 640.67 114.681 642.946C111.382 640.624 106.62 638.556 103.508 639.996C102.841 640.33 102.251 640.799 101.777 641.373C101.302 641.948 100.953 642.615 100.752 643.333C100.55 644.05 100.502 644.802 100.608 645.54C100.715 646.277 100.974 646.984 101.371 647.615C101.582 647.948 101.815 648.266 102.067 648.568C102.653 652.049 104.125 655.321 106.341 658.068C106.504 658.277 108.664 660.391 109.919 661.367L106.504 659.509C104.808 658.556 103.066 657.511 101.371 656.512C100.488 655.978 99.6284 655.42 98.7457 654.84C97.863 654.259 97.05 653.678 96.1905 653.074C94.9362 652.168 93.7051 651.193 92.4507 650.194C94.4399 647.299 95.9607 644.108 96.9571 640.74C97.3107 639.163 97.313 637.528 96.9637 635.95C96.6145 634.372 95.9223 632.891 94.9362 631.611C94.4394 631.055 93.8309 630.61 93.1504 630.306C92.4699 630.001 91.7328 629.844 90.9873 629.844C90.2418 629.844 89.5047 630.001 88.8242 630.306C88.1437 630.61 87.5352 631.055 87.0384 631.611C84.1348 635.049 86.2719 642.877 88.4089 646.268C88.4089 646.384 89.0128 647.058 89.64 647.848C88.4554 646.849 87.3172 645.85 86.1093 644.805C82.8108 641.832 79.5356 638.672 76.2603 635.513L74.193 633.585C76.2277 630.605 77.7944 627.33 78.8387 623.876C79.1911 622.297 79.195 620.66 78.8499 619.079C78.5049 617.499 77.8194 616.012 76.841 614.724C76.3402 614.17 75.729 613.728 75.0469 613.426C74.3647 613.123 73.6268 612.967 72.8805 612.967C72.1343 612.967 71.3963 613.123 70.7142 613.426C70.0321 613.728 69.4209 614.17 68.92 614.724C66.0397 618.161 68.1767 625.99 70.3138 629.381C70.3138 629.497 71.0106 630.31 71.7307 631.193C69.9189 629.52 68.0838 627.871 66.2255 626.292C63.0436 623.562 59.6835 621.048 56.1675 618.765C58.2603 615.692 59.8884 612.326 60.9991 608.777C61.3416 607.2 61.3383 605.567 60.9894 603.991C60.6406 602.415 59.9544 600.934 58.9781 599.648C58.4793 599.092 57.8687 598.647 57.1863 598.342C56.5039 598.037 55.765 597.88 55.0177 597.88C54.2703 597.88 53.5314 598.037 52.849 598.342C52.1666 598.647 51.556 599.092 51.0572 599.648C48.1768 603.086 50.3139 610.914 52.4509 614.306C52.6135 614.561 54.9131 617.441 55.7726 618.44H55.6332C52.1225 616.288 48.4306 614.446 44.5996 612.935C41.1763 611.583 37.6786 610.427 34.1235 609.474C30.8482 608.568 27.782 607.918 25.0643 607.383L20.976 606.663C20.976 606.663 16.3303 603.644 16.1444 603.481C12.544 601.692 4.53009 600.368 1.41744 603.481C0.908808 604.028 0.521653 604.677 0.281402 605.384C0.0411517 606.091 -0.0467604 606.841 0.0234395 607.585C0.0936395 608.329 0.320359 609.049 0.688718 609.699C1.05708 610.349 1.55874 610.913 2.16076 611.356C3.53555 612.206 5.08001 612.744 6.68534 612.933C8.29067 613.121 9.91784 612.956 11.4522 612.447C14.8181 611.049 17.9512 609.145 20.7437 606.803C22.0445 607.035 23.4382 607.29 24.9713 607.616C27.6659 608.22 30.7088 608.916 33.9609 609.939C34.8435 610.194 35.7727 610.519 36.6554 610.798L32.6136 610.426C28.595 610.426 20.9992 613.005 19.5823 617.395C19.3834 618.114 19.3385 618.866 19.4505 619.604C19.5626 620.341 19.8291 621.046 20.2325 621.673C20.636 622.3 21.1674 622.835 21.7919 623.243C22.4163 623.65 23.1199 623.921 23.8564 624.038C25.4698 624.155 27.0891 623.918 28.6015 623.344C30.1139 622.77 31.4831 621.874 32.6136 620.717C34.944 617.92 36.8391 614.787 38.2349 611.425C40.2094 612.099 42.2303 612.819 44.2976 613.748C48.0527 615.302 51.66 617.191 55.0757 619.393L55.6564 619.811C54.8667 619.602 50.4764 618.673 50.1745 618.649C46.1791 618.278 38.2349 619.927 36.4695 624.062C36.2067 624.749 36.0907 625.484 36.1288 626.218C36.167 626.953 36.3585 627.672 36.691 628.328C37.0236 628.985 37.4898 629.564 38.0597 630.029C38.6297 630.495 39.2907 630.836 40.0003 631.03C41.5884 631.325 43.2217 631.27 44.7864 630.869C46.351 630.468 47.8093 629.73 49.0595 628.707C51.7276 626.096 53.9973 623.106 55.7958 619.834C59.143 622.119 62.3397 624.618 65.366 627.314C67.6889 629.311 69.8027 631.425 71.9862 633.562C70.9642 633.283 66.8759 632.447 66.5739 632.424C62.5786 632.052 54.6344 633.678 52.869 637.813C52.5943 638.507 52.4688 639.252 52.5007 639.998C52.5327 640.744 52.7213 641.475 53.0543 642.143C53.3874 642.811 53.8574 643.402 54.4338 643.876C55.0102 644.351 55.68 644.699 56.3998 644.898C57.9879 645.193 59.6212 645.138 61.1859 644.737C62.7505 644.335 64.2088 643.598 65.459 642.575C68.1197 639.988 70.3821 637.022 72.1721 633.771L75.1221 636.675C78.3509 639.88 81.5564 643.109 84.8317 646.175C85.9467 647.244 87.1546 648.266 88.2695 649.288C86.7132 648.94 83.8793 648.336 83.6238 648.312C79.6285 647.941 71.6842 649.59 69.9189 653.725C69.6441 654.419 69.5187 655.163 69.5506 655.909C69.5825 656.655 69.7711 657.386 70.1042 658.054C70.4372 658.723 70.9072 659.313 71.4836 659.788C72.06 660.263 72.7299 660.611 73.4496 660.809C75.0377 661.104 76.6711 661.049 78.2357 660.648C79.8004 660.247 81.2586 659.509 82.5088 658.486C85.1156 656.017 87.3112 653.147 89.0129 649.985C90.9641 651.68 92.9153 653.306 94.8897 654.793C95.7724 655.444 96.6319 656.14 97.4913 656.698L100.093 658.417C101.882 659.532 103.554 660.577 105.273 661.576L107.782 663.039C106.272 662.435 103.833 661.529 103.624 661.483C99.7213 660.507 91.6145 660.925 89.2451 664.735C88.8635 665.374 88.6203 666.087 88.5313 666.826C88.4423 667.565 88.5094 668.315 88.7284 669.026C88.9473 669.738 89.3132 670.395 89.8024 670.957C90.2915 671.518 90.893 671.97 91.568 672.284C93.0927 672.812 94.7141 673 96.319 672.835C97.9239 672.671 99.4735 672.158 100.859 671.332C103.875 669.195 106.546 666.61 108.78 663.667C110.848 664.851 112.869 665.989 114.773 666.988C119.884 669.729 124.32 671.889 127.782 673.515C138.978 683.202 154.773 684.27 154.773 684.27C154.773 684.27 155.586 665.385 144.46 652.935C140.678 648.681 136.007 645.31 130.778 643.063ZM110.778 661.506C112.302 658.275 113.38 654.853 113.984 651.332L115.842 650.937C116.996 656.909 119.368 662.578 122.811 667.592C120.766 666.617 118.56 665.548 116.214 664.34C114.472 663.481 112.636 662.505 110.778 661.506Z" fill="#2E353A"/>
<path d="M213.445 639.463C213.445 639.463 194.537 640.044 182.969 652.053C171.401 664.062 171.633 682.994 171.633 682.994C171.633 682.994 190.541 682.413 202.109 670.404C213.677 658.394 213.445 639.463 213.445 639.463Z" fill="#2E353A"/>
<path d="M164.088 651.634L182.671 634.932L181.858 634.05L164.088 650.031L163.995 628.149L164.088 628.219L179.791 605.246L178.815 604.572L163.972 626.268L163.74 573.609H162.555L162.718 609.357L150.894 599.114L150.104 600.02L162.718 610.937L162.834 636.489L144.901 620.647L144.111 621.529L162.834 638.091L162.927 661.343L149.477 650.774L148.734 651.727L162.95 662.876L162.996 677.859L164.204 677.836L164.088 651.634Z" fill="white"/>
<path d="M146.997 658.069L145.812 657.953L144.302 671.17L136.335 662.25L134.314 646.245L133.129 646.408L134.941 660.717L115.127 638.557L114.244 639.346L127.694 654.375L119.169 654.492L119.192 655.676L128.739 655.56L138.17 666.106L124.86 666.129V667.314L139.238 667.291L147.81 676.884L138.425 677.442L138.495 678.626L148.832 678.022L154.546 684.387L155.429 683.597L145.371 672.354L146.997 658.069Z" fill="white"/>
<path d="M191.847 662.784L207.666 659.578L207.433 658.417L193.287 661.297L213.914 639.857L213.055 639.044L199.048 653.585L198.328 645.083L197.143 645.199L197.956 654.723L188.154 664.897L187.155 651.634L185.947 651.727L187.039 666.059L178.119 675.327L176.864 665.989L175.68 666.152L177.073 676.419L171.127 682.574L171.986 683.411L182.463 672.54L196.818 673.097L196.864 671.912L183.554 671.401L191.847 662.784Z" fill="white"/>
<path d="M807.938 566.198C804.968 563.911 802.347 561.203 800.157 558.161C799.339 556.771 798.833 555.221 798.673 553.617C798.512 552.013 798.701 550.393 799.227 548.869C799.539 548.195 799.989 547.594 800.548 547.105C801.107 546.616 801.763 546.25 802.473 546.031C803.183 545.812 803.931 545.745 804.668 545.833C805.406 545.922 806.116 546.165 806.754 546.547C810.586 548.869 810.981 557.023 810.029 560.902C809.936 561.134 808.101 566.245 807.938 566.198Z" fill="#2E353A"/>
<path d="M865.291 606.988C865.036 607.22 860.645 610.426 860.645 610.356C860.645 610.286 858.183 602.853 858.578 599.346C858.661 597.733 859.094 596.157 859.848 594.729C860.603 593.301 861.659 592.054 862.945 591.076C863.575 590.677 864.283 590.414 865.021 590.305C865.759 590.197 866.512 590.245 867.231 590.447C867.949 590.648 868.618 590.999 869.192 591.475C869.766 591.952 870.234 592.544 870.564 593.213C872.376 597.302 868.241 604.27 865.291 606.988Z" fill="#2E353A"/>
<path d="M735.35 573.609C735.35 573.609 758.045 597.046 757.929 625.827C757.813 654.607 734.909 677.859 734.909 677.859C734.909 677.859 712.191 654.421 712.331 625.641C712.47 596.86 735.35 573.609 735.35 573.609Z" fill="#2E353A"/>
<path d="M767.709 643.063C767.415 642.741 767.144 642.399 766.896 642.041C765.918 640.752 765.232 639.266 764.887 637.685C764.542 636.104 764.546 634.468 764.898 632.888C765.122 632.177 765.494 631.521 765.989 630.963C766.484 630.405 767.091 629.957 767.771 629.65C768.451 629.343 769.188 629.183 769.934 629.181C770.679 629.179 771.417 629.334 772.099 629.636C775.189 631.077 776.745 636.024 777.024 640.066C778.255 639.787 779.347 639.578 780.322 639.416C780.717 638.487 781.135 637.581 781.553 636.652C781.971 635.722 782.32 634.724 782.715 633.748C783.249 632.308 783.737 630.798 784.225 629.288C780.977 627.963 777.953 626.145 775.258 623.899C774.097 622.774 773.195 621.411 772.613 619.903C772.032 618.394 771.785 616.778 771.89 615.165C772.005 614.426 772.274 613.72 772.68 613.092C773.086 612.464 773.62 611.928 774.247 611.521C774.874 611.113 775.579 610.842 776.318 610.725C777.057 610.609 777.812 610.65 778.534 610.844C782.831 612.122 785.363 619.811 785.502 623.829C785.502 623.969 785.502 624.805 785.34 625.827C785.781 624.34 786.222 622.854 786.617 621.344C787.732 617.023 788.708 612.61 789.73 608.173C789.939 607.244 790.171 606.338 790.38 605.409C787.02 604.049 783.887 602.184 781.089 599.881C779.929 598.755 779.027 597.391 778.446 595.883C777.864 594.375 777.617 592.759 777.721 591.147C777.839 590.409 778.11 589.705 778.517 589.079C778.924 588.453 779.457 587.919 780.083 587.512C780.709 587.105 781.414 586.833 782.151 586.715C782.888 586.597 783.642 586.635 784.364 586.826C788.685 588.104 791.333 595.815 791.333 599.834C791.333 599.973 791.333 600.995 791.124 602.157C791.727 599.834 792.331 597.395 793.028 595.049C794.175 591.011 795.587 587.054 797.256 583.202C793.815 581.812 790.604 579.909 787.732 577.558C786.567 576.436 785.662 575.073 785.08 573.564C784.499 572.055 784.254 570.437 784.364 568.824C784.479 568.087 784.747 567.383 785.152 566.757C785.557 566.131 786.088 565.597 786.712 565.19C787.337 564.783 788.039 564.511 788.775 564.393C789.511 564.274 790.264 564.312 790.984 564.503C795.305 565.781 797.837 573.493 797.953 577.488C797.953 577.79 797.628 581.46 797.465 582.761C797.465 582.761 797.465 582.761 797.465 582.622C799.2 578.882 801.268 575.306 803.644 571.936C805.736 568.898 808 565.982 810.427 563.202C812.749 560.624 814.863 558.417 816.838 556.466C817.906 555.421 818.905 554.468 819.857 553.609H819.718C819.718 553.609 821.832 548.592 822.041 548.29C824.062 544.805 829.985 539.277 834.399 540.229C835.119 540.412 835.793 540.744 836.378 541.203C836.963 541.661 837.446 542.237 837.796 542.893C838.146 543.549 838.355 544.27 838.41 545.012C838.465 545.753 838.364 546.498 838.115 547.198C837.434 548.665 836.441 549.965 835.206 551.009C833.97 552.052 832.521 552.812 830.961 553.237C827.392 553.911 823.742 554.036 820.136 553.609C819.184 554.538 818.162 555.514 817.047 556.652C815.142 558.626 812.982 560.903 810.821 563.504C810.241 564.201 809.637 564.968 809.056 565.827C810.31 564.805 812.053 563.388 812.238 563.272C815.607 561.135 823.435 558.952 826.896 561.832C827.449 562.333 827.891 562.944 828.194 563.626C828.496 564.308 828.653 565.046 828.653 565.792C828.653 566.539 828.496 567.277 828.194 567.959C827.891 568.641 827.449 569.252 826.896 569.753C825.611 570.732 824.131 571.421 822.555 571.774C820.979 572.127 819.346 572.135 817.767 571.797C814.264 570.765 810.942 569.198 807.918 567.151C806.64 568.824 805.363 570.543 804.132 572.424C801.864 575.807 799.898 579.383 798.255 583.109C798.255 583.318 798.092 583.551 798.022 583.76C798.533 583.156 801.693 579.95 801.948 579.764C805.084 577.256 812.61 574.236 816.35 576.698C816.963 577.127 817.479 577.68 817.864 578.321C818.25 578.962 818.497 579.676 818.589 580.419C818.681 581.161 818.616 581.914 818.398 582.63C818.181 583.345 817.815 584.007 817.326 584.573C816.157 585.689 814.761 586.538 813.234 587.063C811.706 587.589 810.083 587.777 808.475 587.616C804.804 586.914 801.258 585.669 797.953 583.922C796.422 587.706 795.141 591.585 794.12 595.537C793.33 598.44 792.68 601.414 792.029 604.41C792.75 603.62 795.676 600.647 795.909 600.461C799.045 597.953 806.571 594.933 810.334 597.395C810.945 597.826 811.459 598.38 811.842 599.022C812.226 599.663 812.47 600.378 812.56 601.121C812.65 601.863 812.583 602.616 812.363 603.33C812.144 604.045 811.777 604.706 811.286 605.27C810.122 606.392 808.727 607.246 807.198 607.771C805.669 608.297 804.044 608.482 802.436 608.313C798.785 607.628 795.26 606.391 791.983 604.642C791.681 606.013 791.402 607.36 791.1 608.731C790.194 613.167 789.288 617.627 788.266 621.994C787.918 623.504 787.5 624.991 787.105 626.477C788.22 625.316 790.264 623.272 790.45 623.109C793.586 620.601 801.112 617.581 804.852 620.066C805.464 620.493 805.979 621.043 806.365 621.682C806.75 622.321 806.997 623.034 807.089 623.775C807.181 624.515 807.116 625.267 806.899 625.98C806.682 626.694 806.316 627.354 805.827 627.918C804.663 629.038 803.267 629.891 801.738 630.417C800.21 630.943 798.585 631.128 796.977 630.961C793.445 630.315 790.031 629.14 786.849 627.476C786.176 629.938 785.433 632.354 784.527 634.724C784.155 635.722 783.83 636.791 783.412 637.743L782.784 639.253H783.644C783.644 639.253 783.644 640.67 783.644 642.946C786.942 640.624 791.704 638.556 794.794 639.996C795.465 640.325 796.059 640.791 796.538 641.364C797.017 641.937 797.37 642.605 797.574 643.324C797.778 644.043 797.828 644.796 797.721 645.536C797.614 646.275 797.353 646.984 796.954 647.615C796.743 647.948 796.51 648.266 796.257 648.568C795.672 652.049 794.2 655.321 791.983 658.068C791.82 658.277 789.66 660.391 788.406 661.367L791.82 659.509C793.516 658.556 795.258 657.511 796.954 656.512C797.837 655.978 798.696 655.42 799.579 654.84C800.461 654.259 801.274 653.678 802.134 653.074C803.388 652.168 804.619 651.193 805.874 650.194C803.885 647.299 802.364 644.108 801.367 640.74C801.015 639.165 801.012 637.531 801.357 635.954C801.702 634.378 802.387 632.895 803.365 631.611C803.864 631.055 804.474 630.609 805.157 630.305C805.839 630 806.578 629.843 807.326 629.843C808.073 629.843 808.812 630 809.494 630.305C810.177 630.609 810.787 631.055 811.286 631.611C814.19 635.049 812.053 642.877 809.916 646.268C809.916 646.384 809.312 647.058 808.684 647.848C809.869 646.849 811.007 645.85 812.215 644.805C815.514 641.832 818.789 638.672 822.064 635.513L824.131 633.585C822.105 630.6 820.539 627.327 819.486 623.876C819.143 622.295 819.146 620.658 819.495 619.079C819.844 617.499 820.53 616.013 821.507 614.724C822.007 614.17 822.619 613.728 823.301 613.426C823.983 613.123 824.721 612.967 825.467 612.967C826.213 612.967 826.951 613.123 827.634 613.426C828.316 613.728 828.927 614.17 829.428 614.724C832.308 618.161 830.171 625.99 828.034 629.381C828.034 629.497 827.337 630.31 826.617 631.193C828.429 629.52 830.264 627.871 832.122 626.292C835.304 623.562 838.664 621.048 842.18 618.765C840.079 615.697 838.45 612.33 837.349 608.777C837.001 607.2 837.002 605.566 837.351 603.99C837.7 602.413 838.389 600.931 839.37 599.648C839.868 599.092 840.479 598.647 841.161 598.342C841.844 598.037 842.583 597.88 843.33 597.88C844.077 597.88 844.816 598.037 845.499 598.342C846.181 598.647 846.792 599.092 847.29 599.648C850.171 603.086 848.034 610.914 845.897 614.306C845.734 614.561 843.435 617.441 842.575 618.44H842.714C846.225 616.288 849.917 614.446 853.748 612.935C857.17 611.579 860.668 610.424 864.224 609.474C867.499 608.568 870.566 607.918 873.283 607.383L877.372 606.663C877.372 606.663 881.901 603.644 882.203 603.481C885.804 601.692 893.818 600.368 896.93 603.481C897.435 604.03 897.82 604.679 898.058 605.385C898.296 606.092 898.383 606.841 898.313 607.584C898.243 608.326 898.017 609.046 897.651 609.696C897.285 610.346 896.786 610.911 896.187 611.356C894.812 612.206 893.268 612.744 891.662 612.933C890.057 613.121 888.43 612.956 886.895 612.447C883.53 611.049 880.397 609.145 877.604 606.803C876.303 607.035 874.909 607.29 873.376 607.616C870.659 608.22 867.639 608.916 864.364 609.939L861.692 610.798L865.734 610.426C869.753 610.426 877.465 613.005 878.765 617.395C878.964 618.115 879.008 618.87 878.895 619.608C878.781 620.347 878.513 621.053 878.107 621.681C877.701 622.308 877.167 622.843 876.54 623.249C875.913 623.655 875.207 623.924 874.468 624.038C872.859 624.151 871.244 623.912 869.735 623.339C868.227 622.765 866.862 621.871 865.734 620.717C863.404 617.92 861.509 614.787 860.113 611.425C858.138 612.099 856.117 612.819 854.05 613.748C850.293 615.297 846.685 617.186 843.272 619.393L842.691 619.811C843.481 619.602 847.871 618.673 848.173 618.649C852.169 618.278 860.113 619.927 861.878 624.062C862.141 624.749 862.257 625.484 862.219 626.218C862.181 626.953 861.989 627.672 861.657 628.328C861.324 628.985 860.858 629.564 860.288 630.029C859.718 630.495 859.057 630.836 858.347 631.03C856.759 631.325 855.126 631.27 853.561 630.869C851.997 630.468 850.538 629.73 849.288 628.707C846.62 626.096 844.35 623.106 842.552 619.834C839.205 622.119 836.008 624.618 832.982 627.314C830.659 629.311 828.545 631.425 826.361 633.562C827.383 633.283 831.472 632.447 831.774 632.424C835.769 632.052 843.713 633.678 845.479 637.813C845.753 638.507 845.879 639.252 845.847 639.998C845.815 640.744 845.626 641.475 845.293 642.143C844.96 642.811 844.49 643.402 843.914 643.876C843.337 644.351 842.668 644.699 841.948 644.898C840.36 645.193 838.726 645.138 837.162 644.737C835.597 644.335 834.139 643.598 832.889 642.575C830.228 639.988 827.966 637.022 826.176 633.771L823.226 636.675C819.997 639.88 816.791 643.109 813.516 646.175C812.378 647.244 811.193 648.266 810.078 649.288C811.634 648.94 814.468 648.336 814.724 648.312C818.719 647.941 826.663 649.59 828.429 653.725C828.704 654.419 828.829 655.163 828.797 655.909C828.765 656.655 828.577 657.386 828.244 658.054C827.91 658.723 827.44 659.313 826.864 659.788C826.288 660.263 825.618 660.611 824.898 660.809C823.31 661.104 821.677 661.049 820.112 660.648C818.547 660.247 817.089 659.509 815.839 658.486C813.233 656.011 811.03 653.142 809.312 649.985C807.384 651.68 805.432 653.306 803.435 654.793C802.575 655.444 801.716 656.14 800.833 656.698L798.255 658.417C796.466 659.532 794.794 660.577 793.075 661.576L790.566 663.039C792.076 662.435 794.492 661.529 794.724 661.483C798.626 660.507 806.733 660.925 809.103 664.735C809.481 665.375 809.721 666.087 809.808 666.826C809.895 667.564 809.827 668.312 809.608 669.023C809.39 669.733 809.025 670.39 808.538 670.952C808.051 671.514 807.452 671.967 806.78 672.284C805.255 672.812 803.634 673 802.029 672.835C800.424 672.671 798.874 672.158 797.488 671.332C794.473 669.187 791.796 666.603 789.544 663.667C787.5 664.851 785.479 665.989 783.551 666.988C778.464 669.729 774.027 671.889 770.566 673.515C759.323 682.923 743.528 683.992 743.528 683.992C743.528 683.992 742.692 665.107 753.818 652.656C757.697 648.488 762.437 645.214 767.709 643.063ZM787.732 661.506C786.208 658.275 785.13 654.853 784.527 651.332L782.668 650.937C781.514 656.909 779.142 662.578 775.7 667.592C777.744 666.617 779.951 665.548 782.273 664.34C784.039 663.481 785.874 662.505 787.732 661.506Z" fill="#2E353A"/>
<path d="M684.992 639.463C684.992 639.463 703.9 640.044 715.468 652.053C727.036 664.062 726.897 682.994 726.897 682.994C726.897 682.994 707.989 682.413 696.421 670.404C684.853 658.394 684.992 639.463 684.992 639.463Z" fill="#2E353A"/>
<path d="M734.423 651.634L715.84 634.932L716.653 634.05L734.423 650.031L734.516 628.149L734.423 628.219L718.72 605.246L719.696 604.572L734.539 626.268L734.748 573.609H735.956L735.793 609.357L747.617 599.114L748.406 600.02L735.793 610.937L735.677 636.489L753.61 620.647L754.399 621.529L735.677 638.091L735.561 661.343L749.034 650.774L749.777 651.727L735.561 662.876L735.491 677.859L734.307 677.836L734.423 651.634Z" fill="white"/>
<path d="M751.514 658.069L752.699 657.953L754.209 671.17L762.176 662.25L764.197 646.245L765.358 646.408L763.57 660.717L783.384 638.557L784.266 639.346L770.817 654.375L779.342 654.492L779.319 655.676L769.772 655.56L760.341 666.106L773.651 666.129V667.314L759.272 667.291L750.701 676.884L760.085 677.442L760.016 678.626L749.679 678.022L743.965 684.387L743.082 683.597L753.14 672.354L751.514 658.069Z" fill="white"/>
<path d="M706.644 662.784L690.848 659.578L691.08 658.417L705.227 661.297L684.6 639.857L685.459 639.044L699.443 653.585L700.186 645.083L701.371 645.199L700.558 654.723L710.36 664.897L711.359 651.634L712.567 651.727L711.475 666.059L720.395 675.327L721.649 665.989L722.834 666.152L721.44 676.419L727.387 682.574L726.527 683.411L716.051 672.54L701.696 673.097L701.65 671.912L714.96 671.401L706.667 662.784H706.644Z" fill="white"/>
<path d="M626.919 132.73C611.771 132.752 597.09 127.486 585.41 117.84C571.937 106.644 567.454 92.7998 562.715 78.1192C554.701 53.311 531.821 36.0056 506.966 36.0056C498.929 36.1225 491 37.8806 483.666 41.172C476.332 44.4634 469.748 49.2187 464.318 55.1461C458.372 61.7895 455.027 70.3144 451.426 79.3271C447.826 88.3399 443.97 98.0959 437.118 106.226C430.041 114.567 421.226 121.261 411.292 125.839C401.357 130.417 390.542 132.769 379.603 132.73C361.136 132.752 343.271 126.159 329.243 114.147C317.42 103.996 311.381 90.0123 305.736 75.3783C299.325 58.7697 291.381 41.7896 276.561 29.9894C262.84 18.9662 245.798 12.9009 228.199 12.7769C183.832 12.7769 147.734 62.2773 147.734 109.455H136.654C136.654 55.7733 177.723 1 228.199 1C248.203 1.16897 267.562 8.0942 283.134 20.6515C300.091 34.1241 308.918 52.8 315.91 70.9648C320.997 84.1355 326.363 96.6558 336.142 105.065C348.245 115.371 363.637 121.007 379.534 120.953C388.897 121.005 398.158 119.008 406.669 115.104C415.179 111.2 422.733 105.482 428.802 98.3514C434.4 91.708 437.675 83.4619 441.136 74.7511C444.946 65.1576 448.871 55.239 456.212 47.0393C462.648 39.9253 470.495 34.2294 479.253 30.3142C488.011 26.399 497.489 24.3502 507.082 24.2984C536.513 24.2984 563.714 44.879 573.215 74.3562C577.86 88.456 581.368 99.5826 592.262 108.642C602.032 116.65 614.287 121.003 626.919 120.953C638.423 120.843 649.587 117.04 658.766 110.105C666.478 104.344 671.1 95.8195 676.001 86.8765C680.368 78.8161 684.898 70.477 691.89 63.6478C702.549 53.2044 716.806 47.2439 731.727 46.9928C764.247 46.9928 790.798 75.146 790.798 109.71H779.718C779.718 81.5803 758.185 58.6071 731.727 58.6071C719.591 58.8406 708.004 63.7113 699.346 72.2192C693.632 77.7244 689.73 84.9253 685.595 92.521C680.322 102.254 674.863 112.312 665.154 119.582C654.151 127.956 640.745 132.566 626.919 132.73Z" fill="#CCE5FF" stroke="#2E353A" stroke-linecap="round" stroke-linejoin="round"/>
<path d="M147.734 109.525L162.415 144.554H151.846L136.654 109.525H147.734Z" fill="#CCE5FF" stroke="#2E353A" stroke-linecap="round" stroke-linejoin="round"/>
<path d="M731.748 58.7696C719.612 59.0031 708.026 63.8738 699.368 72.3817C693.653 77.8869 689.751 85.0878 685.616 92.6835C680.343 102.416 674.885 112.474 665.175 119.745C653.624 128.487 639.452 133.057 624.97 132.711C610.489 132.365 596.551 127.123 585.431 117.84C571.958 106.644 567.475 92.7997 562.736 78.1191C554.722 53.3109 531.842 36.0055 506.987 36.0055C498.946 36.1193 491.012 37.8758 483.674 41.1673C476.337 44.4588 469.749 49.2158 464.316 55.146C458.37 61.7894 455.025 70.3143 451.424 79.327C447.824 88.3398 443.968 98.0958 437.116 106.226C430.039 114.567 421.224 121.261 411.29 125.839C401.355 130.417 390.54 132.769 379.601 132.73C361.134 132.752 343.269 126.159 329.241 114.147C317.418 103.996 311.379 90.0122 305.734 75.3782C299.323 58.7696 291.379 41.7895 276.559 29.9893C262.838 18.9661 245.796 12.9008 228.197 12.7769C183.83 12.7769 147.732 62.2772 147.732 109.455L162.343 144.553C162.343 99.5825 196.768 51.8707 238.998 51.8707C255.776 51.9905 272.022 57.7688 285.107 68.2702C299.23 79.5129 306.826 95.7033 312.981 111.545C318.347 125.482 324.108 138.839 335.397 148.525C348.781 159.953 365.812 166.216 383.411 166.179C393.844 166.218 404.159 163.974 413.633 159.604C423.107 155.234 431.511 148.844 438.254 140.883C444.781 133.148 448.405 124.042 451.889 115.332C455.373 106.621 458.532 98.6301 464.2 92.2886C469.385 86.619 475.678 82.0734 482.69 78.933C489.702 75.7926 497.284 74.1241 504.967 74.0309C528.59 74.0309 550.425 90.5465 558.044 114.193C562.574 128.131 566.825 141.394 579.693 152.079C590.809 161.251 604.771 166.269 619.182 166.272C632.344 166.16 645.121 161.82 655.628 153.891C664.919 146.923 670.099 137.376 675.117 128.084C679.066 120.837 682.782 113.961 688.241 108.735C696.492 100.604 707.553 95.9551 719.135 95.7497C744.362 95.7497 764.896 117.561 764.896 144.391L782.503 109.873H779.553C779.739 81.6499 758.206 58.7696 731.748 58.7696Z" fill="#2E353A" stroke="#2E353A" stroke-linecap="round" stroke-linejoin="round"/>
<path d="M775.634 144.298L790.825 109.78H779.745L765.088 144.298H775.634Z" fill="#CCE5FF" stroke="#2E353A" stroke-linecap="round" stroke-linejoin="round"/>
<path d="M745.152 146.573H179.928V678.696H745.152V146.573Z" fill="#CCE5FF" stroke="#2E353A" stroke-linecap="round" stroke-linejoin="round"/>
<path opacity="0.3" d="M745.152 146.573H179.928V678.696H745.152V146.573Z" fill="black"/>
<path d="M471.288 146.573H453.797V678.696H471.288V146.573Z" fill="#2E353A" stroke="#2E353A" stroke-linecap="round" stroke-linejoin="round"/>
<path d="M235.029 573.633H221.277V699.301H235.029V573.633Z" fill="white" stroke="#2E353A" stroke-linecap="round" stroke-linejoin="round"/>
<path d="M471.634 573.633H457.883V699.301H471.634V573.633Z" fill="white" stroke="#2E353A" stroke-linecap="round" stroke-linejoin="round"/>
<path d="M712.169 573.633H698.418V699.301H712.169V573.633Z" fill="white" stroke="#2E353A" stroke-linecap="round" stroke-linejoin="round"/>
<path d="M717.328 566.758H212.174V584.714H717.328V566.758Z" fill="white" stroke="#2E353A" stroke-linecap="round" stroke-linejoin="round"/>
<path d="M717.069 566.758H212.426L242.716 550.08H686.779L717.069 566.758Z" fill="#2E353A" stroke="#2E353A" stroke-linecap="round" stroke-linejoin="round"/>
<path d="M201.298 154.426H179.928V686.549H201.298V154.426Z" fill="#2E353A" stroke="#2E353A" stroke-linecap="round" stroke-linejoin="round"/>
<path d="M177.909 154.426H156.539V706.177H177.909V154.426Z" fill="white" stroke="#2E353A" stroke-linecap="round" stroke-linejoin="round"/>
<path d="M772.704 154.426H751.334V706.177H772.704V154.426Z" fill="white" stroke="#2E353A" stroke-linecap="round" stroke-linejoin="round"/>
<path d="M852.539 745.944H866.174" stroke="#2E353A" stroke-linecap="round" stroke-linejoin="round"/>
<path d="M807.361 745.944H847.129" stroke="#2E353A" stroke-linecap="round" stroke-linejoin="round"/>
<path d="M104.318 745.944H797.416" stroke="#2E353A" stroke-linecap="round" stroke-linejoin="round"/>
<path d="M34.5879 745.944H89.849" stroke="#2E353A" stroke-linecap="round" stroke-linejoin="round"/>
<path d="M851.635 772.263H866.176" stroke="#2E353A" stroke-linecap="round" stroke-linejoin="round"/>
<path d="M150.408 772.263H841.694" stroke="#2E353A" stroke-linecap="round" stroke-linejoin="round"/>
<path d="M34.5879 772.263H136.841" stroke="#2E353A" stroke-linecap="round" stroke-linejoin="round"/>
<path d="M749.314 154.426H727.943V686.549H749.314V154.426Z" fill="#2E353A" stroke="#2E353A" stroke-linecap="round" stroke-linejoin="round"/>
<path d="M777.629 142.996H148.363V179.651H777.629V142.996Z" fill="white" stroke="#2E353A" stroke-linecap="round" stroke-linejoin="round"/>
<path d="M96.3066 718.976L88.9199 725.038V231.313H96.3066V718.976Z" fill="#2E353A" stroke="#2E353A" stroke-linecap="round" stroke-linejoin="round"/>
<path d="M109.478 257.771H75.7734V101.511L109.478 110.594V257.771Z" fill="#2E353A" stroke="#2E353A" stroke-linecap="round" stroke-linejoin="round"/>
<path d="M106.205 242.555H79.0508V116.725L106.205 122.857V242.555Z" fill="#CCE5FF" stroke="#2E353A" stroke-linecap="round" stroke-linejoin="round"/>
<path d="M534.006 392.126C536.515 393.486 538.652 395.439 540.232 397.816C541.811 400.193 542.784 402.921 543.065 405.761C544.319 415.819 565.806 483.112 565.806 488.153C565.806 493.194 555.562 500.813 546.735 500.813C537.908 500.813 532.055 469.756 532.055 469.756L534.006 392.126Z" fill="white" stroke="#2E353A" stroke-linecap="round" stroke-linejoin="round"/>
<path d="M539.04 417.212L533.047 433.193L543.035 425.203" stroke="#2E353A" stroke-width="0.5" stroke-linecap="round" stroke-linejoin="round"/>
<path d="M418.534 392.009C418.534 392.009 407.848 396.91 406.176 406.155C404.503 415.4 387.663 493.681 388.592 497.467C389.521 501.253 413.354 507.525 417.117 505.852C420.88 504.18 422.506 462.206 422.506 462.206L418.534 392.009Z" fill="white" stroke="#2E353A" stroke-linecap="round" stroke-linejoin="round"/>
<path d="M421.643 433.194L411.654 412.219" stroke="#2E353A" stroke-width="0.5" stroke-linecap="round" stroke-linejoin="round"/>
<path d="M420.159 435.702L407.662 423.205" stroke="#2E353A" stroke-width="0.5" stroke-linecap="round" stroke-linejoin="round"/>
<path d="M456.932 377.653C456.932 377.653 420.184 389.268 418.535 392.009C416.886 394.75 427.014 498.861 427.014 505.527C427.014 512.194 429.638 517.351 439.511 520.301C449.383 523.251 494.4 522.624 505.248 521.625C516.096 520.626 527.919 513.077 528.918 506.178C529.917 499.279 534.191 398.42 535.166 393.588C535.585 391.451 527.129 387.99 518.442 384.506C510.939 381.509 492.751 373.728 485.922 373.728C479.092 373.728 469.754 371.753 456.932 377.653Z" fill="white" stroke="#2E353A" stroke-linecap="round" stroke-linejoin="round"/>
<path d="M480.579 491.196C479.765 494.132 479.259 497.145 479.069 500.186C479.069 503.693 487.06 502.694 487.06 507.688C487.06 512.683 478.07 517.166 478.07 517.166" stroke="#2E353A" stroke-width="0.5" stroke-linecap="round" stroke-linejoin="round"/>
<path d="M453.535 492.961C453.535 492.961 463.988 505.296 499.993 499.14" stroke="#2E353A" stroke-width="0.5" stroke-linecap="round" stroke-linejoin="round"/>
<path d="M463.505 370.105C463.505 370.105 454.957 372.427 453.308 375.679C451.659 378.931 454.307 383.577 454.632 387.294C454.957 391.01 449.986 405.041 449.986 405.041C449.986 405.041 459.835 404.715 461.601 406.016C463.366 407.317 479.998 418.838 479.998 418.838C479.998 418.838 485.596 405.04 492.17 403.066C498.743 401.092 504.667 399.117 504.667 399.117C504.667 399.117 496.769 387.944 494.144 379.071C491.519 370.197 474.678 363.856 463.505 370.105Z" fill="#2E353A" stroke="#2E353A" stroke-linecap="round" stroke-linejoin="round"/>
<path d="M459.881 363.856C459.881 363.856 465.804 389.825 466.129 405.667C466.455 421.509 456.606 456.283 461.205 466.062C465.804 475.841 478.301 485.783 479.277 485.783C480.252 485.783 489.474 468.687 490.125 456.515C490.775 444.343 481.251 412.798 484.201 399.001C486.206 388.147 487.417 377.162 487.825 366.132L459.881 363.856Z" fill="white" stroke="#2E353A" stroke-linecap="round" stroke-linejoin="round"/>
<g style="mix-blend-mode:multiply" opacity="0.54">
<path d="M459.881 363.856C459.881 363.856 461.112 369.268 462.482 376.655C467.456 379.526 473.145 380.92 478.882 380.673C481.719 380.518 484.494 379.783 487.035 378.513C487.639 371.544 487.825 366.155 487.825 366.155L459.881 363.856Z" fill="#CCE5FF"/>
</g>
<path d="M479.28 485.806C480.279 485.806 489.477 468.71 490.128 456.538C490.778 444.366 481.255 412.822 484.205 399.024C484.499 397.615 484.778 396.151 485.041 394.634C482.861 395.139 480.635 395.42 478.397 395.47C473.824 395.638 469.273 394.764 465.087 392.915C465.651 397.122 465.999 401.355 466.133 405.598C466.458 421.37 456.609 456.213 461.208 465.992C465.807 475.772 478.258 485.806 479.28 485.806Z" fill="white" stroke="#2E353A" stroke-linecap="round" stroke-linejoin="round"/>
<path d="M539.858 492.148C539.858 492.148 600.717 535.841 601.205 540.743C601.693 545.644 573.725 576.584 563.412 575.586C553.098 574.587 517.744 513.751 517.744 513.751L539.858 492.148Z" fill="#CCE5FF" stroke="#2E353A" stroke-linecap="round" stroke-linejoin="round"/>
<path d="M435.537 385.389L531.704 510.057L538.835 493.681L448.987 380.395L435.537 385.389Z" fill="#CCE5FF" stroke="#2E353A" stroke-linecap="round" stroke-linejoin="round"/>
<path d="M411.654 661.997L412.513 680.58C412.513 680.58 399.064 689.871 393.187 693.588C387.31 697.304 377.252 703.227 380.597 705.759C383.942 708.291 429.377 705.759 429.377 705.759C429.377 705.759 430.632 704.923 430.632 699.464C430.632 694.006 429.795 669.662 429.795 669.662L411.654 661.997Z" fill="white" stroke="#2E353A" stroke-linecap="round" stroke-linejoin="round"/>
<path d="M430.539 699.349C430.539 697.815 430.539 694.703 430.376 691.195L416.694 692.217C416.694 692.217 416.694 690.522 416.276 685.481C415.858 680.44 412.513 680.464 412.513 680.464C412.513 680.464 399.064 689.755 393.187 693.472C387.31 697.188 377.252 703.112 380.597 705.644C383.942 708.176 429.377 705.644 429.377 705.644C429.377 705.644 430.539 704.9 430.539 699.349Z" fill="#2E353A" stroke="#2E353A" stroke-linecap="round" stroke-linejoin="round"/>
<path d="M380.391 703.111C379.787 704.11 379.741 704.993 380.6 705.643C383.968 708.152 429.381 705.643 429.381 705.643C429.381 705.643 429.985 705.202 430.356 703.111H380.391Z" fill="white" stroke="#2E353A" stroke-linecap="round" stroke-linejoin="round"/>
<path d="M531.286 661.997L530.45 680.58C530.45 680.58 543.876 689.871 549.753 693.588C555.63 697.304 565.688 703.227 562.343 705.759C558.998 708.291 513.563 705.759 513.563 705.759C513.563 705.759 512.309 704.923 512.309 699.464C512.309 694.006 513.145 669.662 513.145 669.662L531.286 661.997Z" fill="white" stroke="#2E353A" stroke-linecap="round" stroke-linejoin="round"/>
<path d="M512.404 699.349C512.404 697.815 512.404 694.703 512.567 691.195L526.249 692.217C526.249 692.217 526.249 690.522 526.667 685.481C527.085 680.44 530.453 680.464 530.453 680.464C530.453 680.464 543.879 689.755 549.756 693.472C555.633 697.188 565.691 703.112 562.346 705.644C559.001 708.176 513.566 705.644 513.566 705.644C513.566 705.644 512.404 704.9 512.404 699.349Z" fill="#2E353A" stroke="#2E353A" stroke-linecap="round" stroke-linejoin="round"/>
<path d="M562.553 703.111C563.18 704.11 563.203 704.993 562.344 705.643C558.976 708.152 513.564 705.643 513.564 705.643C513.564 705.643 512.96 705.202 512.588 703.111H562.553Z" fill="white" stroke="#2E353A" stroke-linecap="round" stroke-linejoin="round"/>
<path d="M430.122 514.263C430.122 514.263 402.015 523.066 391.934 530.197C381.852 537.329 387.288 552.451 397.811 562.09C408.333 571.73 423.827 578.049 435.162 573.008C446.498 567.967 459.088 556.632 475.882 556.632C492.677 556.632 507.357 569.663 522.34 575.099C537.322 580.534 557.183 562.927 560.969 548.246C564.755 533.566 555.301 517.166 532.003 518.862C482.735 522.462 472.375 526.04 430.122 514.263Z" fill="#2E353A" stroke="#2E353A" stroke-linecap="round" stroke-linejoin="round"/>
<path d="M400.767 531.032C400.767 531.032 386.481 526.851 382.3 540.324C378.119 553.796 389.431 630.126 391.592 644.853C393.752 659.58 393.264 662.065 393.264 662.065C393.264 662.065 411.313 664.992 417.19 668.36C423.067 671.728 432.312 671.705 432.312 671.705C432.312 671.705 423.903 617.141 425.599 604.551C427.294 591.961 433.984 583.157 432.312 570.149C430.639 557.141 419.304 539.952 419.304 539.952" fill="#2E353A"/>
<path d="M400.767 531.032C400.767 531.032 386.481 526.851 382.3 540.324C378.119 553.796 389.431 630.126 391.592 644.853C393.752 659.58 393.264 662.065 393.264 662.065C393.264 662.065 411.313 664.992 417.19 668.36C423.067 671.728 432.312 671.705 432.312 671.705C432.312 671.705 423.903 617.141 425.599 604.551C427.294 591.961 433.984 583.157 432.312 570.149C430.639 557.141 419.304 539.952 419.304 539.952" stroke="#2E353A" stroke-linecap="round" stroke-linejoin="round"/>
<path d="M542.801 531.032C542.801 531.032 557.064 526.851 561.268 540.324C565.473 553.796 554.114 630.126 551.977 644.853C549.84 659.58 550.304 662.065 550.304 662.065C550.304 662.065 532.256 664.992 526.379 668.36C520.502 671.728 511.257 671.705 511.257 671.705C511.257 671.705 519.666 617.141 517.993 604.551C516.321 591.961 509.584 583.157 511.257 570.149C512.929 557.141 524.288 539.952 524.288 539.952" fill="#2E353A"/>
<path d="M542.801 531.032C542.801 531.032 557.064 526.851 561.268 540.324C565.473 553.796 554.114 630.126 551.977 644.853C549.84 659.58 550.304 662.065 550.304 662.065C550.304 662.065 532.256 664.992 526.379 668.36C520.502 671.728 511.257 671.705 511.257 671.705C511.257 671.705 519.666 617.141 517.993 604.551C516.321 591.961 509.584 583.157 511.257 570.149C512.929 557.141 524.288 539.952 524.288 539.952" stroke="#2E353A" stroke-linecap="round" stroke-linejoin="round"/>
<path d="M523.272 542.74C518.548 550.591 514.656 558.913 511.657 567.571C511.146 559.63 513.251 551.74 517.65 545.109" stroke="white" stroke-width="0.5" stroke-linecap="round" stroke-linejoin="round"/>
<path d="M532.564 532.613C530.748 533.759 529.119 535.177 527.732 536.817" stroke="white" stroke-width="0.5" stroke-linecap="round" stroke-linejoin="round"/>
<path d="M417.65 540.603C417.65 540.603 431.588 558.582 432.145 571.567" stroke="white" stroke-width="0.5" stroke-linecap="round" stroke-linejoin="round"/>
<path d="M426.641 544.111C429.149 550.104 429.149 555.098 432.146 566.573" stroke="white" stroke-width="0.5" stroke-linecap="round" stroke-linejoin="round"/>
<path d="M406.618 650.869L387.176 589.569" stroke="white" stroke-width="0.5" stroke-linecap="round" stroke-linejoin="round"/>
<path d="M409.664 660.509L407.713 654.33" stroke="white" stroke-width="0.5" stroke-linecap="round" stroke-linejoin="round"/>
<path d="M540.551 648.338L553.025 612.031" stroke="white" stroke-width="0.5" stroke-linecap="round" stroke-linejoin="round"/>
<path d="M536.559 659.998L538.858 653.285" stroke="white" stroke-width="0.5" stroke-linecap="round" stroke-linejoin="round"/>
<path d="M436.561 312.335L442.787 339.281C442.787 339.281 435.562 334.635 435.562 341.255C435.562 347.875 438.536 351.429 442.531 352.869C444.98 353.658 447.596 353.77 450.104 353.195C452.011 357.186 454.687 360.762 457.978 363.717C463.84 368.966 471.483 371.782 479.349 371.592C486.898 371.592 496.77 364.042 499.395 355.169C502.02 346.296 493.472 329.617 492.171 318.351C490.87 307.086 501.695 307.504 496.817 298.305C491.939 289.107 465.597 287.457 449.477 291.337C433.356 295.216 436.561 312.335 436.561 312.335Z" fill="white" stroke="#2E353A" stroke-linecap="round" stroke-linejoin="round"/>
<path d="M488.801 322.439C487.982 322.582 487.204 322.905 486.525 323.385C485.845 323.865 485.281 324.489 484.872 325.214C484.463 325.938 484.22 326.744 484.161 327.574C484.101 328.403 484.226 329.236 484.527 330.011C485.163 333.506 487.034 336.656 489.8 338.885C489.8 338.885 491.45 343.809 483.877 343.159" stroke="#2E353A" stroke-linecap="round" stroke-linejoin="round"/>
<path d="M474.936 324.808C472.806 324.102 470.508 324.085 468.369 324.761C466.229 325.436 464.357 326.77 463.02 328.571" stroke="#2E353A" stroke-linecap="round" stroke-linejoin="round"/>
<path d="M474.979 334.286C475.281 335.703 474.979 336.98 474.096 337.166C473.213 337.352 472.4 336.353 472.075 334.843C471.75 333.333 472.075 332.125 472.934 331.94C473.794 331.754 474.653 332.869 474.979 334.286Z" fill="#2E353A"/>
<path d="M490.076 330.917C490.402 332.334 490.076 333.635 489.217 333.821C488.358 334.007 487.521 332.985 487.196 331.498C486.871 330.012 487.196 328.804 488.056 328.618C488.915 328.432 489.867 329.57 490.076 330.917Z" fill="#2E353A"/>
<path d="M488.151 351.707L483.227 352.357" stroke="#2E353A" stroke-linecap="round" stroke-linejoin="round"/>
<path d="M448.175 516.352L454.052 523.065L444.83 530.196L439.371 525.574L448.175 516.352Z" fill="#2E353A" stroke="#2E353A" stroke-linecap="round" stroke-linejoin="round"/>
<path d="M409.569 482.764C409.569 482.764 412.078 481.51 417.955 485.296C423.832 489.082 451.543 512.102 449.453 517.189C448.356 519.712 446.611 521.9 444.396 523.532C442.181 525.163 439.574 526.181 436.84 526.481C430.986 527.317 404.528 510.941 397.351 506.318C390.173 501.696 388.059 499.605 388.547 497.514C389.035 495.424 388.129 489.547 393.193 487.015" fill="white"/>
<path d="M409.569 482.764C409.569 482.764 412.078 481.51 417.955 485.296C423.832 489.082 451.543 512.102 449.453 517.189C448.356 519.712 446.611 521.9 444.396 523.532C442.181 525.163 439.574 526.181 436.84 526.481C430.986 527.317 404.528 510.941 397.351 506.318C390.173 501.696 388.059 499.605 388.547 497.515C389.035 495.424 388.129 489.547 393.193 487.015" stroke="#2E353A" stroke-linecap="round" stroke-linejoin="round"/>
<path d="M501.897 512.983L493.93 519.278L502.315 528.523L509.446 522.228L501.897 512.983Z" fill="#2E353A" stroke="#2E353A" stroke-linecap="round" stroke-linejoin="round"/>
<path d="M545.129 479.419C545.129 479.419 535.49 481.928 530.867 486.132C524.998 490.97 518.881 495.498 512.54 499.698C508.753 502.439 503.782 504.692 500.925 508.618C497.162 513.983 501.158 516.98 505.037 520.836C514.444 530.127 525.826 522.044 534.7 516.771C543.573 511.498 553.469 506.504 560.995 499.558C566.453 494.518 567.708 486.132 561.413 480.976" fill="white"/>
<path d="M545.129 479.419C545.129 479.419 535.49 481.928 530.867 486.132C524.998 490.97 518.881 495.498 512.54 499.698C508.753 502.439 503.782 504.692 500.925 508.618C497.162 513.983 501.158 516.98 505.037 520.836C514.444 530.127 525.826 522.044 534.7 516.771C543.573 511.498 553.469 506.504 560.995 499.558C566.453 494.518 567.708 486.132 561.413 480.976" stroke="#2E353A" stroke-linecap="round" stroke-linejoin="round"/>
<path d="M454.052 523.064C457.829 524.48 461.37 526.461 464.551 528.941C467.478 531.868 472.519 547.408 472.519 550.776C472.519 554.144 472.937 557.489 470.428 557.489C467.919 557.489 466.224 555.375 464.969 555.375C463.715 555.375 459.093 552.449 454.888 549.917C450.684 547.385 447.757 539.441 446.503 535.654C445.248 531.868 444.83 530.196 444.83 530.196L454.052 523.064Z" fill="white" stroke="#2E353A" stroke-linecap="round" stroke-linejoin="round"/>
<path d="M462.18 553.913L455.49 544.529" stroke="#2E353A" stroke-width="0.5" stroke-linecap="round" stroke-linejoin="round"/>
<path d="M466.759 556.05L460.324 542.647" stroke="#2E353A" stroke-width="0.5" stroke-linecap="round" stroke-linejoin="round"/>
<path d="M471.31 556.329L465.41 540.766" stroke="#2E353A" stroke-width="0.5" stroke-linecap="round" stroke-linejoin="round"/>
<path d="M493.93 519.279C490.282 521.891 486.777 524.698 483.431 527.688C480.504 530.615 475.464 546.271 475.464 549.5C475.464 552.729 475.046 556.213 477.554 556.213C480.063 556.213 481.759 554.123 483.013 554.123C484.267 554.123 488.89 551.196 493.094 548.664C497.299 546.132 500.225 538.164 501.48 534.401C502.218 532.536 502.504 530.522 502.316 528.525L493.93 519.279Z" fill="white" stroke="#2E353A" stroke-linecap="round" stroke-linejoin="round"/>
<path d="M477.557 556.213L483.643 541.044" stroke="#2E353A" stroke-width="0.5" stroke-linecap="round" stroke-linejoin="round"/>
<path d="M482.043 554.447L489.546 540.51" stroke="#2E353A" stroke-width="0.5" stroke-linecap="round" stroke-linejoin="round"/>
<path d="M488.73 551.217L493.818 541.577" stroke="#2E353A" stroke-width="0.5" stroke-linecap="round" stroke-linejoin="round"/>
<path d="M496.699 298.118C491.775 288.827 465.48 287.271 449.359 291.15C433.239 295.029 436.56 312.195 436.56 312.195L442.484 337.747L444.11 339.768C444.11 339.768 446.432 341.742 447.408 339.442C448.384 337.143 444.11 331.219 445.759 328.92C447.408 326.62 453.982 328.92 452.007 321.045C450.033 313.171 450.033 308.223 459.231 304.924C468.43 301.626 479.603 300.279 484.528 303.949C489.452 307.619 492.1 318.072 492.1 318.072C490.776 306.992 501.624 307.317 496.699 298.118Z" fill="#2E353A" stroke="#2E353A" stroke-linecap="round" stroke-linejoin="round"/>
<path d="M438.928 310.453C441.806 310.909 444.737 310.909 447.615 310.453C452.261 309.686 453.306 300.163 468.962 297.909C484.619 295.656 484.526 304.042 484.526 304.042C484.526 304.042 493.074 295.377 489.543 292.636C486.012 289.895 460.972 290.523 450.379 299.396" stroke="white" stroke-width="0.5" stroke-linecap="round" stroke-linejoin="round"/>
<path d="M590.397 547.292C589.477 548.402 588.483 549.449 587.424 550.428" stroke="#2E353A" stroke-width="0.5" stroke-linecap="round" stroke-linejoin="round"/>
<path d="M566.129 517.654C566.129 517.654 594.143 536.655 593.678 540.882C593.59 541.597 593.395 542.294 593.097 542.95" stroke="#2E353A" stroke-width="0.5" stroke-linecap="round" stroke-linejoin="round"/>
</svg>
