<svg width="30" height="30" viewBox="0 0 30 30" fill="none" xmlns="http://www.w3.org/2000/svg">
<path d="M15 0C6.72965 0 0 6.7282 0 15C0 23.2718 6.72965 30 15 30C23.2703 30 30 23.2718 30 15C30 6.7282 23.2703 0 15 0ZM15 29.0009C7.28064 29.0009 1.00094 22.7198 1.00094 15C1.00094 7.28015 7.28064 0.999127 15 0.999127C22.7194 0.999127 28.9991 7.28015 28.9991 15C28.9991 22.7198 22.7194 29.0009 15 29.0009Z" fill="#0D2535"/>
<path d="M18.2675 6.57596H15.7717C12.5931 6.54415 12.1871 8.51153 12.1871 10.6408V12.189H10.7839C10.7205 12.1806 10.6559 12.1868 10.5953 12.2073C10.5347 12.2278 10.4797 12.2621 10.4344 12.3073C10.3892 12.3525 10.355 12.4076 10.3345 12.4682C10.314 12.5288 10.3077 12.5934 10.3162 12.6568V15.4633C10.3077 15.5267 10.314 15.5913 10.3345 15.6519C10.355 15.7125 10.3892 15.7676 10.4344 15.8128C10.4797 15.8581 10.5347 15.8923 10.5953 15.9128C10.6559 15.9333 10.7205 15.9395 10.7839 15.9311H12.1871V22.9474C12.1793 23.011 12.1861 23.0754 12.207 23.1359C12.228 23.1964 12.2625 23.2513 12.3079 23.2965C12.3533 23.3416 12.4084 23.3758 12.469 23.3963C12.5296 23.4169 12.5941 23.4233 12.6576 23.4152H15.5154C15.7914 23.447 16.0149 23.2234 15.927 22.9474L15.9289 15.9311H18.2675C18.3309 15.9395 18.3955 15.9333 18.4561 15.9128C18.5167 15.8923 18.5717 15.8581 18.617 15.8128C18.6622 15.7676 18.6964 15.7125 18.7169 15.6519C18.7375 15.5913 18.7437 15.5267 18.7352 15.4633V12.6568C18.7437 12.5934 18.7375 12.5288 18.7169 12.4682C18.6964 12.4076 18.6622 12.3525 18.617 12.3073C18.5717 12.2621 18.5167 12.2278 18.4561 12.2073C18.3955 12.1868 18.3309 12.1806 18.2675 12.189H15.9261L15.9289 10.7858C16.0196 10.188 16.0196 10.2853 16.5744 10.318H18.2479C18.3779 10.289 18.5164 10.3049 18.6136 10.2104C18.7109 10.1159 18.7671 9.98683 18.7343 9.85025V7.04371C18.7429 6.98034 18.7368 6.91583 18.7164 6.85521C18.6961 6.79458 18.6619 6.73949 18.6168 6.69422C18.5716 6.64895 18.5166 6.61472 18.456 6.59421C18.3954 6.57369 18.3309 6.56745 18.2675 6.57596ZM17.7671 9.33011L16.594 9.2852C15.1412 9.2852 15.0196 10.0738 15.0196 10.8812L15.0159 12.6549C15.0158 12.7206 15.0286 12.7857 15.0536 12.8464C15.0787 12.9071 15.1155 12.9623 15.1619 13.0088C15.2083 13.0553 15.2634 13.0921 15.324 13.1173C15.3847 13.1425 15.4497 13.1554 15.5154 13.1554H17.7998V14.9628H15.5173C15.3847 14.9628 15.2576 15.0154 15.1637 15.1091C15.0699 15.2027 15.0171 15.3298 15.0168 15.4624L15.0159 22.4797H13.1225V15.4633C13.1225 15.1873 12.9345 14.9638 12.6576 14.9638H11.2516V13.1563H12.6576C12.7232 13.1564 12.7883 13.1436 12.8489 13.1186C12.9096 13.0935 12.9647 13.0568 13.0112 13.0104C13.1048 12.9159 13.1216 12.7887 13.1216 12.6558V10.6398C13.1216 8.5424 13.5454 7.54328 15.7708 7.54328H17.7661V9.33011H17.7671Z" fill="#0D2535"/>
</svg>
