<svg width="15" height="15" viewBox="0 0 15 15" fill="none" xmlns="http://www.w3.org/2000/svg">
<path d="M7.5 13.125C10.9518 13.125 13.75 10.3268 13.75 6.875C13.75 3.42322 10.9518 0.625 7.5 0.625C4.04822 0.625 1.25 3.42322 1.25 6.875C1.25 10.3268 4.04822 13.125 7.5 13.125Z" fill="#FFF59D"/>
<path d="M11.5619 6.87524C11.5619 4.46899 9.49943 2.56274 7.03068 2.84399C5.15568 3.06274 3.65568 4.56274 3.46818 6.43774C3.31193 7.87524 3.90568 9.15649 4.90568 9.96899C5.34318 10.344 5.62443 10.8752 5.62443 11.469V11.5627H9.37443V11.5315C9.37443 10.969 9.62443 10.4065 10.0619 10.0315C10.9682 9.28149 11.5619 8.15649 11.5619 6.87524Z" fill="#FBC02D"/>
<path d="M9.5625 6.3125L8.625 5.6875C8.53125 5.625 8.375 5.625 8.28125 5.6875L7.5 6.1875L6.75 5.6875C6.65625 5.625 6.5 5.625 6.40625 5.6875L5.46875 6.3125C5.40625 6.375 5.34375 6.4375 5.34375 6.53125C5.34375 6.625 5.34375 6.71875 5.40625 6.78125L6.59375 8.25V11.5625H7.21875V8.125C7.21875 8.0625 7.1875 8 7.15625 7.9375L6.125 6.65625L6.59375 6.34375L7.34375 6.84375C7.4375 6.90625 7.59375 6.90625 7.6875 6.84375L8.4375 6.34375L8.90625 6.65625L7.875 7.9375C7.84375 8 7.8125 8.0625 7.8125 8.125V11.5625H8.4375V8.25L9.625 6.78125C9.6875 6.71875 9.71875 6.625 9.6875 6.53125C9.65625 6.4375 9.625 6.34375 9.5625 6.3125Z" fill="#FFF59D"/>
<path d="M7.5 14.6875C8.01777 14.6875 8.4375 14.2678 8.4375 13.75C8.4375 13.2322 8.01777 12.8125 7.5 12.8125C6.98223 12.8125 6.5625 13.2322 6.5625 13.75C6.5625 14.2678 6.98223 14.6875 7.5 14.6875Z" fill="#5C6BC0"/>
<path d="M8.125 14.0625H6.875C6.1875 14.0625 5.625 13.5 5.625 12.8125V11.25H9.375V12.8125C9.375 13.5 8.8125 14.0625 8.125 14.0625Z" fill="#9FA8DA"/>
<path d="M9.375 12.8125L5.75 13.3125C5.84375 13.5312 6.03125 13.75 6.25 13.875L9.1875 13.4687C9.3125 13.2812 9.375 13.0625 9.375 12.8125ZM5.625 12.0938V12.7188L9.375 12.1875V11.5625L5.625 12.0938Z" fill="#5C6BC0"/>
</svg>
