<svg width="15" height="15" viewBox="0 0 15 15" fill="none" xmlns="http://www.w3.org/2000/svg">
<g clip-path="url(#clip0_4903_38789)">
<path d="M5.5992 0C4.5681 0 3.7242 0.8439 3.7242 1.875C3.7242 2.9061 4.5681 3.75 5.5992 3.75C5.7966 3.75 5.9871 3.7188 6.1662 3.6615L7.1526 5.75805C5.93385 6.5259 5.2977 8.0265 5.6895 9.48855C5.75818 9.74431 5.85682 9.99107 5.98335 10.2237L3.32085 11.9343L3.32055 11.9341C2.97585 11.517 2.45505 11.25 1.875 11.25C0.8439 11.25 0 12.0939 0 13.125C0 14.1561 0.8439 15 1.875 15C2.9061 15 3.75 14.1561 3.75 13.125C3.75 12.8885 3.7038 12.6624 3.6228 12.4535L6.3156 10.7235C7.1283 11.7355 8.4912 12.2318 9.8229 11.8749C11.6199 11.3934 12.6909 9.53835 12.2094 7.74135C12.0623 7.1903 11.7771 6.68589 11.3807 6.27585L12.8622 4.35465C13.0613 4.45001 13.2792 4.49967 13.5 4.5C14.324 4.5 15 3.82395 15 3C15 2.17605 14.324 1.5 13.5 1.5C12.6761 1.5 12 2.17605 12 3C12 3.38085 12.1455 3.72885 12.3824 3.99435L10.9263 5.88225C10.1313 5.30835 9.09435 5.082 8.076 5.35485C7.9422 5.39085 7.8129 5.4351 7.6875 5.4855L6.7005 3.3876C7.1679 3.0456 7.4742 2.4951 7.4742 1.875C7.4742 0.8439 6.6303 0 5.5992 0ZM5.5992 0.75C6.225 0.75 6.7242 1.2492 6.7242 1.875C6.7242 2.5008 6.225 3 5.5992 3C5.45125 3.00076 5.30462 2.97217 5.16779 2.9159C5.03096 2.85963 4.90664 2.7768 4.80202 2.67218C4.6974 2.56756 4.61457 2.44324 4.5583 2.30641C4.50203 2.16958 4.47344 2.02295 4.4742 1.875C4.4742 1.2492 4.9734 0.75 5.5992 0.75ZM13.5 2.25C13.9187 2.25 14.25 2.58135 14.25 3C14.25 3.41865 13.9187 3.75 13.5 3.75C13.0814 3.75 12.75 3.41865 12.75 3C12.75 2.58135 13.0814 2.25 13.5 2.25ZM9.06795 5.61675C10.3436 5.6673 11.4942 6.53535 11.8451 7.83105C11.8459 7.83352 11.8467 7.83602 11.8473 7.83855C11.8481 7.84152 11.8487 7.84452 11.8491 7.84755C12.272 9.444 11.3224 11.085 9.726 11.5127C8.12655 11.9412 6.48045 10.991 6.0519 9.39165C5.62335 7.7922 6.5739 6.14565 8.1732 5.7171C8.46468 5.6387 8.76634 5.60482 9.06795 5.6166V5.61675ZM8.71695 5.80515C8.67823 5.80841 8.63957 5.81241 8.601 5.81715C8.59755 5.82555 8.6157 5.8374 8.6733 5.8527L8.7381 5.85675C8.80995 5.82765 8.7711 5.81085 8.7171 5.80515H8.71695ZM9.28095 5.8146C9.237 5.8377 9.16695 5.8626 9.09585 5.87865C9.13485 6.01815 9.297 6.3747 9.49155 6.2499C9.456 6.26835 9.6558 6.38235 9.58125 6.43035C9.61605 6.7341 9.24885 6.31035 9.13035 6.3489C8.9589 6.42735 9.19635 6.45915 9.14325 6.5199C9.01245 6.7116 9.3705 6.7797 9.27915 6.54105C9.35295 6.73335 9.41835 6.7092 9.576 6.65595C9.2262 6.816 9.8346 6.80535 9.68115 6.9735C9.49305 7.00575 9.4086 7.10175 9.5604 7.25355C9.55635 7.4331 9.7227 7.39635 9.7944 7.4388L9.85455 7.41645L9.89295 7.4007C9.89145 7.40085 9.88995 7.40175 9.8883 7.4019C10.0983 7.2702 9.8574 6.8439 10.1093 6.80865C10.1055 6.9993 10.4325 7.0923 10.2126 6.876C10.0746 6.7734 10.5718 6.8802 10.3963 6.99585C10.6498 7.19295 10.3898 6.74985 10.5642 6.84255C10.6973 6.9762 10.772 6.8301 10.7951 6.81765C10.8506 6.7848 10.9482 6.7869 10.9758 6.79455C11.2644 6.95235 10.7924 6.9813 10.8308 7.1508C10.8839 7.2516 10.5773 7.188 10.529 7.16955C10.325 6.88215 10.1407 7.27275 9.95625 7.3773C9.90605 7.44345 9.85645 7.51005 9.80745 7.5771C9.83595 7.86915 9.65655 8.0994 9.6489 8.40465C9.6759 8.57265 9.7908 8.78415 9.8154 8.96655C9.9288 9.17865 10.1775 9.25065 10.3937 9.31155C10.5582 9.3642 10.658 9.1518 10.8085 9.10935C10.8886 8.87955 11.1386 8.9655 11.2541 8.91915C11.1746 9.1728 11.4594 9.27585 11.4542 9.52845C11.3826 9.68745 11.399 9.86865 11.3836 10.0395C11.5726 9.71764 11.6955 9.36138 11.7453 8.99151C11.795 8.62164 11.7707 8.24556 11.6736 7.8852C11.3658 6.73665 10.3934 5.946 9.28095 5.8146ZM8.36835 5.8755C8.31239 5.87972 8.25667 5.88673 8.2014 5.8965C7.0167 6.2226 6.2166 7.257 6.1362 8.41905C6.15615 8.38005 6.18435 8.3559 6.2232 8.35815C6.35625 8.28795 6.3687 8.52315 6.41745 8.65785C6.53655 8.67495 6.36585 8.23845 6.585 8.16855C6.68972 7.96176 6.82247 7.7704 6.9795 7.5999C7.06485 7.6317 7.2171 7.5843 7.30755 7.4385C7.16565 7.4475 7.12845 7.3473 7.2975 7.2585C7.551 7.0587 7.2045 7.428 7.4484 7.4028C7.7223 7.40955 7.428 7.1718 7.5174 7.0239C7.3683 6.97185 7.4811 6.5841 7.3005 6.7914C7.362 6.7164 7.2162 6.6459 7.2735 6.5877C7.32285 6.65895 7.4934 6.7293 7.49505 6.53415C7.6431 6.52035 7.56825 6.3207 7.61505 6.1899C7.94025 5.96715 7.73655 6.39465 7.76925 6.5709C7.97505 6.8769 8.0448 6.35805 8.247 6.29145C8.499 6.2331 8.40645 6.00225 8.3685 5.8755H8.36835ZM9.40035 5.96565C9.46185 6.02475 9.35295 5.97645 9.37995 5.96685C9.38667 5.9652 9.39363 5.96479 9.4005 5.96565H9.40035ZM9.40905 6.0501C9.42015 6.04815 9.4485 6.05115 9.5028 6.0624C9.6318 6.15825 9.3603 6.0585 9.40905 6.0501ZM9.639 6.12975C9.67875 6.11895 9.8091 6.15855 9.80685 6.2403C9.7224 6.3561 9.76005 6.29625 9.7131 6.20535C9.62385 6.16095 9.615 6.13635 9.639 6.12975ZM8.6133 6.2277C8.58182 6.22686 8.55039 6.23091 8.52015 6.2397C8.46885 6.25575 8.43645 6.288 8.4726 6.3387C8.5107 6.3597 8.5566 6.35475 8.5968 6.34425C8.77635 6.2715 8.70675 6.22935 8.6133 6.2277ZM9.1428 6.2622C9.13875 6.2622 9.1407 6.27045 9.15495 6.29385C9.21855 6.3363 9.1545 6.26235 9.14265 6.2622H9.1428ZM8.95635 6.26715C8.9535 6.2694 8.95245 6.27585 8.95485 6.2889C9.01395 6.3276 8.96835 6.25755 8.95635 6.26715ZM10.4514 6.3852C10.4613 6.3813 10.4854 6.3903 10.5296 6.42015C10.5521 6.3432 10.8007 6.44115 10.6281 6.51705C10.6304 6.66165 10.4085 6.4023 10.4514 6.3852ZM7.34625 6.4365C7.3659 6.4479 7.3203 6.5439 7.2375 6.58155C7.1349 6.72705 7.2075 6.54795 7.25745 6.50865C7.29375 6.46425 7.3188 6.4431 7.33365 6.4371C7.3392 6.43485 7.3434 6.43485 7.34625 6.4365ZM7.05585 6.6252C7.15935 6.6054 7.11465 6.8715 7.00485 6.9135C6.9429 6.924 6.927 7.0305 6.8886 7.0743C6.88965 7.0965 6.80505 6.74655 6.9594 6.69075C7.0002 6.6495 7.032 6.62985 7.05585 6.6252ZM10.1901 6.6891C10.224 6.6858 10.3713 6.7245 10.4358 6.7614C10.4858 6.8229 10.3188 6.7341 10.2938 6.7494C10.203 6.71325 10.1758 6.6957 10.1842 6.6906C10.1861 6.68971 10.1881 6.6892 10.1901 6.6891ZM10.6101 6.71655C10.6146 6.7131 10.6311 6.71745 10.6682 6.7374C10.6925 6.80685 10.5969 6.72705 10.6101 6.71655ZM10.8194 6.87015C10.8144 6.86881 10.8091 6.86913 10.8043 6.87105C10.7917 6.87615 10.782 6.89445 10.7831 6.9348C10.8906 6.95475 10.8552 6.879 10.8194 6.87015ZM10.0506 7.0104C10.0391 7.0155 10.0263 7.0413 10.0161 7.10355C10.1081 7.1667 10.0851 6.9951 10.0506 7.01055V7.0104ZM7.1487 7.2477C7.1559 7.2459 7.1691 7.24875 7.1907 7.2603C7.1607 7.2987 7.12725 7.25325 7.1487 7.2477ZM6.59235 7.3236C6.60045 7.3224 6.6141 7.32885 6.63585 7.3479C6.62895 7.47645 6.55725 7.3287 6.59235 7.3236ZM6.6348 7.46625C6.6384 7.46445 6.64305 7.4658 6.6489 7.47165C6.6375 7.6452 6.6099 7.47915 6.6348 7.46625ZM8.72985 7.5993C8.71545 7.60185 8.6973 7.6131 8.67855 7.6395C8.78385 7.66245 8.7732 7.59165 8.72985 7.5993ZM8.86935 7.60875C8.86305 7.608 8.85255 7.6152 8.8374 7.6368C8.871 7.6818 8.8884 7.61055 8.86935 7.60875ZM6.6126 7.64925C6.6195 7.64865 6.62655 7.65405 6.6321 7.66935C6.5526 7.76355 6.58245 7.65105 6.6126 7.6491V7.64925ZM9.41625 7.77945C9.41503 7.77885 9.41367 7.77857 9.41231 7.77862C9.41095 7.77867 9.40963 7.77906 9.40845 7.77975C9.4032 7.78275 9.39735 7.7907 9.39165 7.80735C9.43665 7.85055 9.43305 7.7877 9.41625 7.77945ZM9.651 7.94385C9.639 7.947 9.6318 7.97235 9.64395 8.0397C9.72675 8.03745 9.67725 7.9368 9.651 7.94385ZM9.53025 8.0397C9.50881 8.03968 9.48748 8.04281 9.46695 8.049C9.4335 8.0601 9.4155 8.0814 9.45045 8.1153L9.462 8.11725L9.51975 8.1018C9.64755 8.0628 9.5955 8.0388 9.53025 8.0397ZM6.50775 8.58375C6.5025 8.58525 6.50265 8.5992 6.51585 8.63625C6.59055 8.6883 6.5235 8.57925 6.50775 8.58375ZM6.50175 8.6877C6.49635 8.68815 6.4926 8.706 6.49455 8.75565C6.55125 8.83995 6.51855 8.68605 6.5019 8.6877H6.50175ZM6.3531 8.77995C6.23745 8.79855 6.49755 8.9415 6.52905 9.027C6.75255 9.0273 6.5322 9.1545 6.7275 9.1785C7.01835 9.2028 6.79725 9.03345 6.6726 9.01875C6.6978 8.9361 6.52755 8.92575 6.4272 8.78025C6.40259 8.77729 6.37773 8.77719 6.3531 8.77995ZM6.2346 8.80935C6.22215 8.8062 6.2022 8.8314 6.16995 8.90235C6.15713 8.88807 6.14697 8.87161 6.13995 8.85375C6.14895 8.95725 6.1635 9.0615 6.18435 9.1656C6.26775 9.32235 6.34455 9.5097 6.45555 9.6375C6.55125 9.8049 6.5256 9.5688 6.5754 9.70755C6.68745 9.9648 6.5979 10.2847 6.86805 10.488C7.03305 10.7217 7.29195 10.8471 7.49955 11.0336C7.82671 11.2301 8.19034 11.3582 8.56845 11.4102C8.61495 11.3379 8.62845 11.2448 8.70465 11.1987C9.1047 11.1888 8.8167 10.7682 9.04365 10.5947C9.13065 10.2357 8.5716 10.3319 8.34645 10.2701C8.0037 10.3085 7.9272 9.89955 7.60485 9.89295C7.34955 9.9195 7.344 9.5427 7.16955 9.6096C7.02225 9.6801 6.90345 9.48315 6.82125 9.52155C6.80625 9.549 6.6747 9.40755 6.62955 9.61455C6.34875 9.627 6.4527 9.27285 6.29505 9.13245C6.2445 9.08325 6.27225 8.81865 6.2346 8.80935ZM6.59655 8.8131C6.59572 8.81307 6.59489 8.81322 6.59411 8.81353C6.59334 8.81384 6.59263 8.8143 6.59205 8.8149C6.5871 8.82045 6.59175 8.83905 6.61965 8.8758L6.6351 8.88105C6.6357 8.83965 6.60885 8.81295 6.59655 8.8131ZM9.4227 8.9094C9.4161 8.91135 9.4086 8.9184 9.4011 8.93385C9.4641 8.9916 9.4515 8.9013 9.4227 8.9094ZM9.25755 8.9154C9.24255 8.91765 9.24555 8.9289 9.29595 8.95635C9.4086 8.94885 9.29025 8.9103 9.25755 8.9154ZM9.43065 8.9904C9.42612 8.98974 9.4215 8.99053 9.41745 8.99265C9.4077 8.99715 9.3951 9.00765 9.37965 9.0276C9.43965 9.0654 9.45585 8.99565 9.43065 8.9904ZM9.34545 9.0237C9.33975 9.0246 9.33375 9.03495 9.32895 9.0621C9.37395 9.1026 9.3621 9.02115 9.34545 9.0237ZM6.49305 9.0723C6.477 9.0732 6.47955 9.09135 6.53265 9.14325C6.65445 9.15225 6.52845 9.07035 6.49305 9.0723ZM11.1839 9.1098C11.1782 9.1107 11.1719 9.12075 11.1671 9.1479C11.2121 9.1884 11.2005 9.10725 11.1839 9.1098ZM6.93585 9.13185C6.93022 9.13073 6.92439 9.13125 6.91905 9.13335C6.90555 9.13875 6.89715 9.15675 6.90405 9.19605C7.0281 9.2118 6.9774 9.1392 6.9357 9.13185H6.93585ZM7.17915 9.2901C7.173 9.28935 7.17375 9.3162 7.1904 9.39345L7.2039 9.4347C7.28145 9.54345 7.1979 9.2922 7.17915 9.2901ZM1.875 12C2.5008 12 3 12.4992 3 13.125C3 13.7508 2.5008 14.25 1.875 14.25C1.72705 14.2508 1.58042 14.2222 1.44359 14.1659C1.30676 14.1096 1.18244 14.0268 1.07782 13.9222C0.973204 13.8176 0.890366 13.6932 0.834097 13.5564C0.777828 13.4196 0.749245 13.2729 0.75 13.125C0.75 12.4992 1.2492 12 1.875 12Z" fill="#7E0B92"/>
</g>
<defs>
<clipPath id="clip0_4903_38789">
<rect width="15" height="15" fill="white"/>
</clipPath>
</defs>
</svg>
