<svg width="30" height="30" viewBox="0 0 30 30" fill="none" xmlns="http://www.w3.org/2000/svg">
<path d="M15 8.125C13.6403 8.125 12.311 8.52821 11.1805 9.28365C10.0499 10.0391 9.16868 11.1128 8.64833 12.3691C8.12798 13.6253 7.99183 15.0076 8.2571 16.3412C8.52238 17.6749 9.17715 18.8999 10.1386 19.8614C11.1001 20.8228 12.3251 21.4776 13.6588 21.7429C14.9924 22.0082 16.3747 21.872 17.6309 21.3517C18.8872 20.8313 19.9609 19.9501 20.7164 18.8195C21.4718 17.689 21.875 16.3597 21.875 15C21.8729 13.1773 21.1479 11.4298 19.8591 10.1409C18.5702 8.85206 16.8227 8.12707 15 8.125ZM15 20.625C13.8875 20.625 12.7999 20.2951 11.8749 19.677C10.9499 19.0589 10.2289 18.1804 9.80318 17.1526C9.37743 16.1248 9.26604 14.9938 9.48308 13.9026C9.70012 12.8115 10.2359 11.8092 11.0225 11.0225C11.8092 10.2359 12.8115 9.70012 13.9026 9.48308C14.9938 9.26604 16.1248 9.37743 17.1526 9.80318C18.1804 10.2289 19.0589 10.9499 19.677 11.8749C20.2951 12.7999 20.625 13.8875 20.625 15C20.6233 16.4913 20.0302 17.9211 18.9756 18.9756C17.9211 20.0302 16.4913 20.6233 15 20.625ZM21.875 0H8.125C5.97086 0.00243996 3.90566 0.859248 2.38245 2.38245C0.859248 3.90566 0.00243996 5.97086 0 8.125V21.875C0.00243996 24.0291 0.859248 26.0943 2.38245 27.6175C3.90566 29.1408 5.97086 29.9976 8.125 30H21.875C24.0291 29.9976 26.0943 29.1408 27.6175 27.6175C29.1408 26.0943 29.9976 24.0291 30 21.875V8.125C29.9976 5.97086 29.1408 3.90566 27.6175 2.38245C26.0943 0.859248 24.0291 0.00243996 21.875 0ZM28.75 21.875C28.7479 23.6977 28.0229 25.4452 26.7341 26.7341C25.4452 28.0229 23.6977 28.7479 21.875 28.75H8.125C6.30227 28.7479 4.55479 28.0229 3.26592 26.7341C1.97706 25.4452 1.25207 23.6977 1.25 21.875V8.125C1.25207 6.30227 1.97706 4.55479 3.26592 3.26592C4.55479 1.97706 6.30227 1.25207 8.125 1.25H21.875C23.6977 1.25207 25.4452 1.97706 26.7341 3.26592C28.0229 4.55479 28.7479 6.30227 28.75 8.125V21.875ZM24.375 6.875C24.375 7.12223 24.3017 7.3639 24.1643 7.56946C24.027 7.77502 23.8318 7.93524 23.6034 8.02985C23.3749 8.12446 23.1236 8.14921 22.8811 8.10098C22.6387 8.05275 22.4159 7.9337 22.2411 7.75888C22.0663 7.58407 21.9473 7.36134 21.899 7.11886C21.8508 6.87639 21.8755 6.62505 21.9701 6.39665C22.0648 6.16824 22.225 5.97301 22.4305 5.83566C22.6361 5.69831 22.8778 5.625 23.125 5.625C23.4564 5.62541 23.7741 5.75724 24.0084 5.99157C24.2428 6.2259 24.3746 6.54361 24.375 6.875Z" fill="#0D2535"/>
</svg>
