<svg width="30" height="30" viewBox="0 0 30 30" fill="none" xmlns="http://www.w3.org/2000/svg">
<path d="M18.2939 11.2129C17.6597 11.2129 17.19 11.3729 16.8224 11.5749C16.7634 11.3654 16.5698 11.212 16.3415 11.2578H13.55C13.274 11.212 13.0504 11.4355 13.1355 11.7256V22.0162C13.0504 22.2781 13.274 22.5026 13.55 22.4839H16.3415C16.6175 22.5026 16.8411 22.2781 16.8411 22.0022L16.8402 15.7829C16.8392 15.7801 16.8289 15.4826 17.017 15.2777C17.1676 15.1149 17.4267 15.0317 17.785 15.0317C18.3819 15.0317 18.6476 15.2758 18.7467 15.8222V22.0022C18.6485 22.2781 18.8721 22.5026 19.1481 22.4839H22.0903C22.3662 22.5026 22.5898 22.2781 22.4907 22.0022V15.6145C22.5889 12.3664 20.2754 11.2129 18.2939 11.2129ZM21.5898 21.5484H19.6476V15.8222C19.6476 14.7173 18.9338 14.0325 17.786 14.0325C17.1367 14.0325 16.6315 14.2234 16.2835 14.5994C15.7999 15.1233 15.8373 15.7875 15.9411 15.9354V21.5484H14.0495V12.212H15.842V12.5263C15.8412 12.62 15.8669 12.7119 15.9161 12.7916C15.9653 12.8713 16.036 12.9355 16.12 12.9768C16.204 13.0182 16.298 13.0349 16.3911 13.0253C16.4843 13.0156 16.5728 12.9798 16.6465 12.9221L16.7775 12.821C17.1564 12.5226 17.5483 12.213 18.2949 12.213C19.0676 12.213 21.5907 12.459 21.5907 15.6154V21.5484H21.5898Z" fill="#0D2535"/>
<path d="M10.3247 6.55273C9.27506 6.55273 8.42188 7.40592 8.42188 8.45557C8.42188 9.50521 9.27506 10.3584 10.3247 10.3584C11.3744 10.3584 12.2275 9.50521 12.2275 8.45557C12.2275 7.40592 11.3744 6.55273 10.3247 6.55273ZM10.3247 9.35927C9.82701 9.35927 9.421 8.95326 9.421 8.45557C9.421 7.95787 9.82701 7.55186 10.3247 7.55186C10.8224 7.55186 11.2284 7.95787 11.2284 8.45557C11.2284 8.95326 10.8224 9.35927 10.3247 9.35927Z" fill="#0D2535"/>
<path d="M11.6571 11.2129H8.88054C8.60456 11.2129 8.38098 11.4365 8.4502 11.7265V22.0171C8.38098 22.2791 8.60456 22.5036 8.88054 22.4849H11.6571C11.9331 22.5036 12.1567 22.2791 12.1567 22.0031V11.7125C12.1567 11.58 12.1041 11.4529 12.0104 11.3592C11.9167 11.2655 11.7896 11.2129 11.6571 11.2129ZM11.2567 21.5494H9.3801V12.213H11.2567V21.5494Z" fill="#0D2535"/>
<path d="M15 0C6.7282 0 0 6.7282 0 15C0 23.2718 6.7282 30 15 30C23.2718 30 30 23.2718 30 15C30 6.7282 23.2718 0 15 0ZM15 29.0009C7.28015 29.0009 0.999127 22.7198 0.999127 15C0.999127 7.28015 7.28015 0.999127 15 0.999127C22.7198 0.999127 29.0009 7.28015 29.0009 15C29.0009 22.7198 22.7198 29.0009 15 29.0009Z" fill="#0D2535"/>
</svg>
