<svg width="15" height="15" viewBox="0 0 15 15" fill="none" xmlns="http://www.w3.org/2000/svg">
<path d="M3.4375 10.9375C2.47917 10.9375 1.66667 10.6042 1 9.9375C0.333333 9.27083 0 8.45833 0 7.5C0 6.54167 0.333333 5.72917 1 5.0625C1.66667 4.39583 2.47917 4.0625 3.4375 4.0625C3.82292 4.0625 4.19271 4.13021 4.54688 4.26562C4.90104 4.40104 5.21875 4.59375 5.5 4.84375L6.5625 5.8125L5.625 6.65625L4.65625 5.78125C4.48958 5.63542 4.30208 5.52083 4.09375 5.4375C3.88542 5.35417 3.66667 5.3125 3.4375 5.3125C2.83333 5.3125 2.31771 5.52604 1.89062 5.95312C1.46354 6.38021 1.25 6.89583 1.25 7.5C1.25 8.10417 1.46354 8.61979 1.89062 9.04688C2.31771 9.47396 2.83333 9.6875 3.4375 9.6875C3.66667 9.6875 3.88542 9.64583 4.09375 9.5625C4.30208 9.47917 4.48958 9.36458 4.65625 9.21875L9.5 4.84375C9.78125 4.59375 10.099 4.40104 10.4531 4.26562C10.8073 4.13021 11.1771 4.0625 11.5625 4.0625C12.5208 4.0625 13.3333 4.39583 14 5.0625C14.6667 5.72917 15 6.54167 15 7.5C15 8.45833 14.6667 9.27083 14 9.9375C13.3333 10.6042 12.5208 10.9375 11.5625 10.9375C11.1771 10.9375 10.8073 10.8698 10.4531 10.7344C10.099 10.599 9.78125 10.4063 9.5 10.1563L8.4375 9.1875L9.375 8.34375L10.3438 9.21875C10.5104 9.36458 10.6979 9.47917 10.9062 9.5625C11.1146 9.64583 11.3333 9.6875 11.5625 9.6875C12.1667 9.6875 12.6823 9.47396 13.1094 9.04688C13.5365 8.61979 13.75 8.10417 13.75 7.5C13.75 6.89583 13.5365 6.38021 13.1094 5.95312C12.6823 5.52604 12.1667 5.3125 11.5625 5.3125C11.3333 5.3125 11.1146 5.35417 10.9062 5.4375C10.6979 5.52083 10.5104 5.63542 10.3438 5.78125L5.5 10.1563C5.21875 10.4063 4.90104 10.599 4.54688 10.7344C4.19271 10.8698 3.82292 10.9375 3.4375 10.9375Z" fill="#FF725E"/>
</svg>
