<svg width="15" height="15" viewBox="0 0 15 15" fill="none" xmlns="http://www.w3.org/2000/svg">
<path d="M7.5 13.75C6.05208 13.3854 4.85687 12.5546 3.91438 11.2575C2.97146 9.96083 2.5 8.52083 2.5 6.9375V3.125L7.5 1.25L12.5 3.125V6.9375C12.5 8.52083 12.0288 9.96083 11.0863 11.2575C10.1433 12.5546 8.94792 13.3854 7.5 13.75ZM7.5 12.4375C8.51042 12.125 9.35417 11.5079 10.0312 10.5863C10.7083 9.66417 11.1042 8.63542 11.2188 7.5H7.5V2.57812L3.75 3.98438V7.21875C3.75 7.29167 3.76042 7.38542 3.78125 7.5H7.5V12.4375Z" fill="#3868A6"/>
</svg>
