<svg width="15" height="15" viewBox="0 0 15 15" fill="none" xmlns="http://www.w3.org/2000/svg">
<path d="M12.5 3.125H5.625C4.9375 3.125 4.375 3.6875 4.375 4.375V13.125L6.875 10.625H12.5C13.1875 10.625 13.75 10.0625 13.75 9.375V4.375C13.75 3.6875 13.1875 3.125 12.5 3.125ZM12.5 9.375H6.375L5.625 10.125V4.375H12.5V9.375ZM1.875 4.375C1.5 4.375 1.25 4.625 1.25 5C1.25 5.375 1.5 5.625 1.875 5.625H3.125V4.375H1.875ZM1.25 6.875C0.875 6.875 0.625 7.125 0.625 7.5C0.625 7.875 0.875 8.125 1.25 8.125H3.125V6.875H1.25ZM0.625 9.375C0.25 9.375 0 9.625 0 10C0 10.375 0.25 10.625 0.625 10.625H3.125V9.375H0.625Z" fill="#38959B"/>
</svg>
