<svg width="15" height="15" viewBox="0 0 15 15" fill="none" xmlns="http://www.w3.org/2000/svg">
<path d="M11.25 6.25V5H12.5V6.25H11.25ZM11.25 7.5V6.25H10V7.5H11.25ZM11.25 5V3.75H10V5H11.25ZM10 1.775V2.5H11.25C10.8562 2.2125 10.4438 1.96875 10 1.775ZM11.25 2.5V3.75H12.5C12.1375 3.28125 11.7188 2.8625 11.25 2.5ZM12.5 3.75V5H13.225C13.0312 4.55625 12.7875 4.14375 12.5 3.75ZM13.75 7.5C13.75 7.075 13.7062 6.65625 13.625 6.25H12.5V7.5H13.75ZM10 3.75V2.5H8.75V3.75H10ZM10 10H11.25V8.75H10V10ZM11.25 11.25H12.5V10H11.25V11.25ZM10 12.5H11.25V11.25H10V12.5ZM8.75 13.625C9.1875 13.5375 9.6 13.4 10 13.225V12.5H8.75V13.625ZM11.25 8.75H12.5V7.5H11.25V8.75ZM10 5H8.75V6.25H10V5ZM12.5 10H13.225C13.4 9.6 13.5375 9.1875 13.625 8.75H12.5V10ZM10 7.5H8.75V8.75H10V7.5ZM7.5 11.25V10H8.75V8.75H7.5V7.5H8.75V6.25H7.5V5H8.75V3.75H7.5V2.5H8.75V1.375C8.34375 1.29375 7.93125 1.25 7.5 1.25C4.0625 1.25 1.25 4.0625 1.25 7.5C1.25 10.9375 4.0625 13.75 7.5 13.75V12.5H8.75V11.25H7.5ZM8.75 11.25H10V10H8.75V11.25Z" fill="#252B32"/>
</svg>
