<svg width="30" height="30" viewBox="0 0 30 30" fill="none" xmlns="http://www.w3.org/2000/svg">
<g clip-path="url(#clip0_4882_36851)">
<path fill-rule="evenodd" clip-rule="evenodd" d="M10 20C11.3261 20 12.5979 19.4732 13.5355 18.5355C14.4732 17.5979 15 16.3261 15 15C15 13.6739 14.4732 12.4021 13.5355 11.4645C12.5979 10.5268 11.3261 10 10 10C8.67392 10 7.40215 10.5268 6.46447 11.4645C5.52678 12.4021 5 13.6739 5 15C5 16.3261 5.52678 17.5979 6.46447 18.5355C7.40215 19.4732 8.67392 20 10 20ZM10 22.5C11.9891 22.5 13.8968 21.7098 15.3033 20.3033C16.7098 18.8968 17.5 16.9891 17.5 15C17.5 13.0109 16.7098 11.1032 15.3033 9.6967C13.8968 8.29018 11.9891 7.5 10 7.5C8.01088 7.5 6.10322 8.29018 4.6967 9.6967C3.29018 11.1032 2.5 13.0109 2.5 15C2.5 16.9891 3.29018 18.8968 4.6967 20.3033C6.10322 21.7098 8.01088 22.5 10 22.5ZM21.875 15C21.875 13.9175 21.76 12.7525 21.305 11.7537C21.3003 11.743 21.2926 11.7339 21.2829 11.7275C21.2731 11.7211 21.2617 11.7177 21.25 11.7177C21.2383 11.7177 21.2269 11.7211 21.2171 11.7275C21.2074 11.7339 21.1997 11.743 21.195 11.7537C20.7412 12.7537 20.625 13.9175 20.625 15C20.625 16.0825 20.74 17.2475 21.195 18.2463C21.2175 18.2937 21.2825 18.2937 21.305 18.2463C21.7588 17.2463 21.875 16.0825 21.875 15ZM21.25 21.25C23.125 21.25 24.375 18.4513 24.375 15C24.375 11.5487 23.125 8.75 21.25 8.75C19.375 8.75 18.125 11.5487 18.125 15C18.125 18.4513 19.375 21.25 21.25 21.25ZM26.25 20.625C26.94 20.625 27.5 18.4513 27.5 15C27.5 11.5487 26.94 9.375 26.25 9.375C25.56 9.375 25 11.5487 25 15C25 18.4513 25.56 20.625 26.25 20.625Z" fill="#0D2535"/>
</g>
<defs>
<clipPath id="clip0_4882_36851">
<rect width="30" height="30" fill="white"/>
</clipPath>
</defs>
</svg>
