<svg width="1728" height="660" viewBox="0 0 1728 660" fill="none" xmlns="http://www.w3.org/2000/svg">
<rect x="-17.2031" width="1754" height="648" fill="url(#paint0_linear_4882_36613)"/>
<path d="M532.034 516.702C457.574 580.487 134.205 625.829 -18.1727 640.527L1781.71 540.751L1737.07 2.4778C1701.54 4.64248 1619.7 28.4809 1576.55 106.517C1522.6 204.063 1086.73 248.84 995.987 254.37C905.242 259.9 625.108 436.971 532.034 516.702Z" fill="#023A84"/>
<path d="M527.175 548.396C449.858 614.388 132.708 642.943 -16.2031 648.972L1736.8 660V57.4286C1702.18 57.4286 1620.92 78.426 1572.81 162.415C1512.66 267.402 1086.49 287.694 998.069 287.694C909.648 287.694 623.822 465.907 527.175 548.396Z" fill="#02306C"/>
<path d="M208.855 114.036C118.339 157.537 12.3096 153.782 -29.3909 146.467L-18.2572 32.7666L631.487 2.56241C624.597 9.00449 599.746 30.3475 555.456 64.1829C500.094 106.477 322 59.6597 208.855 114.036Z" fill="#023A84"/>
<path d="M206.742 92.5496C113.611 131.785 7.97393 123.114 -33.2031 113.873L-14.9022 0.857117H635.797C628.51 6.96995 602.347 27.1281 555.985 58.8579C498.032 98.5203 323.156 43.5048 206.742 92.5496Z" fill="#02306C"/>
<defs>
<linearGradient id="paint0_linear_4882_36613" x1="235.297" y1="-30" x2="746.155" y2="724.903" gradientUnits="userSpaceOnUse">
<stop offset="0.185248" stop-color="#0D468F"/>
<stop offset="1" stop-color="#061E3D"/>
</linearGradient>
</defs>
</svg>
