<svg width="15" height="15" viewBox="0 0 15 15" fill="none" xmlns="http://www.w3.org/2000/svg">
<path d="M7.33515 1.59258C7.33515 1.59258 7.5496 1.09805 8.03593 0.78399C8.27265 0.631646 8.68632 0.396099 8.76132 0.528521C8.79413 0.585943 8.68749 0.734771 8.57968 0.96563C8.53632 1.06055 8.43906 1.36993 8.43906 1.36993C8.43906 1.36993 8.86796 0.808599 9.61913 0.660943C10.2098 0.543755 10.8484 0.619927 10.9223 0.751177C11.0019 0.892974 10.5836 1.20469 10.4523 1.47657C10.3211 1.74844 10.2215 2.09532 10.2215 2.09532C10.2215 2.09532 11.0125 1.72149 11.2117 1.6418C11.459 1.54336 11.9957 1.33711 12.0695 1.42735C12.1434 1.51758 11.8328 2.04141 11.7648 2.13633C11.6828 2.25235 11.5586 2.4668 11.5586 2.4668C11.5586 2.4668 11.9383 2.29336 12.0859 2.20313C12.2348 2.1129 12.5641 1.85626 12.6391 1.90665C12.7129 1.95586 12.7129 2.45743 12.6637 2.67422C12.598 2.96251 12.2922 3.27657 12.2922 3.27657C12.2922 3.27657 12.7293 3.37501 12.9684 3.68086C13.2074 3.98672 13.3469 4.22461 13.4465 4.53047C13.5953 4.98399 13.6609 5.60274 13.6281 5.71875C13.5953 5.83477 13.4137 5.67774 13.075 5.65313C12.8746 5.6379 12.8277 5.63672 12.8277 5.63672C12.8277 5.63672 13.0187 5.86407 13.1078 6.07383C13.2238 6.34571 13.3504 6.77461 13.4207 6.95625C13.4945 7.1461 13.5531 7.29493 13.6598 7.50938C13.6914 7.57266 13.4371 7.6336 13.1816 7.39336C13.0961 7.31368 12.9918 7.23633 12.9918 7.23633C12.9918 7.23633 13.143 8.13516 13.1324 8.7375C13.1242 9.18282 13.0246 9.99141 12.8934 10.0652C12.7609 10.1391 12.4973 9.57071 12.4973 9.57071C12.4973 9.57071 12.3824 10.2176 12.25 10.6512C12.093 11.1621 11.9441 11.4012 11.8539 11.707C11.7461 12.0703 11.6394 12.334 11.5656 12.218C11.5012 12.1184 11.4332 11.9625 11.3676 11.8465C11.3172 11.7586 11.2023 11.5242 11.2023 11.5242C11.2023 11.5242 11.0863 12.225 10.5262 12.6961C9.96601 13.1672 9.60273 13.5457 9.33788 13.5785C9.18202 13.5984 9.36249 12.8941 9.36249 12.8941C9.36249 12.8941 8.48827 13.5809 8.06757 13.8926C7.87773 14.0332 7.70429 14.4949 7.57304 14.4621C7.44062 14.4293 7.10312 13.9172 6.88866 13.7613C6.67421 13.6055 6.26991 13.4227 6.21249 13.3898C6.15507 13.357 5.88202 13.1836 5.88202 13.1836C5.88202 13.1836 5.94999 13.5668 5.87382 13.6043C5.70859 13.6863 5.07343 13.2328 4.89179 12.9527C4.71015 12.6727 4.38906 12.0949 4.38906 12.0949C4.38906 12.0949 4.34804 12.6481 4.21562 12.5566C4.07499 12.4606 3.39062 11.9543 3.15156 11.5746C2.98281 11.3063 2.68984 10.5516 2.68984 10.5516C2.68984 10.5516 2.43437 10.8152 2.35937 10.8481C2.28437 10.8809 2.0957 10.9559 2.12851 10.6664C2.16132 10.3781 1.93515 9.72422 1.89765 9.33047C1.84843 8.81954 1.94687 8.29102 1.94687 8.29102C1.94687 8.29102 1.52616 8.85235 1.32812 8.84414C1.13007 8.83594 1.24609 7.75547 1.29531 7.425C1.34452 7.09454 1.50976 6.51797 1.57538 6.31172C1.64101 6.10547 1.88827 5.80079 1.88827 5.80079C1.88827 5.80079 1.27773 6.00704 1.18749 5.925C1.09726 5.84297 1.23671 5.10821 1.31991 4.6629C1.3621 4.43438 1.54257 4.07696 1.77343 3.81329C2.00429 3.54961 2.35937 3.59883 2.39218 3.48282C2.42499 3.3668 2.26093 3.2754 2.14491 3.08672C1.97148 2.80665 1.87304 2.22891 1.96327 2.1293C2.01952 2.06836 2.33476 2.31094 2.71445 2.35196C3.09413 2.39297 3.43163 2.36836 3.43163 2.36836C3.43163 2.36836 3.21249 2.11055 3.11874 1.89844C2.98632 1.60196 2.97812 1.24688 3.06132 1.15547C3.14452 1.06407 3.43281 1.34532 3.8207 1.44376C4.20859 1.54219 4.78632 1.55157 4.78632 1.55157C4.78632 1.55157 4.53906 1.2879 4.47343 0.982037C4.4078 0.677349 4.42421 0.487505 4.53085 0.454693C4.63866 0.42188 4.95273 0.716021 5.17421 0.785161C5.41327 0.85899 6.22187 0.809771 6.58515 0.917583C6.94843 1.0254 7.33515 1.59258 7.33515 1.59258Z" fill="#865C50"/>
<path d="M9.94151 4.16746C9.94151 4.16746 11.3607 2.81512 12.1856 3.82059C13.1642 5.01473 10.5685 6.3284 10.5685 6.3284L9.94151 4.16746ZM4.99268 4.51317C4.99268 4.51317 3.66963 2.77879 2.69698 3.71864C1.72432 4.65848 3.73877 6.09637 3.73877 6.09637L4.99268 4.51317Z" fill="#FEC000"/>
<path d="M11.1625 5.32188C11.1625 5.32188 12.202 4.59649 11.7731 4.1336C11.3149 3.64024 10.4699 4.49688 10.4699 4.49688L11.1625 5.32188ZM4.38791 4.55547C4.38791 4.55547 3.52658 3.70235 3.08127 4.22969C2.68048 4.7043 3.82423 5.61602 3.82423 5.61602L4.38791 4.55547Z" fill="#FF8E06"/>
<path d="M7.58282 10.4845C7.58282 10.4845 8.42422 10.2536 8.95157 9.98995C9.47891 9.72628 11.443 8.6212 11.5906 7.26769C11.7395 5.91534 11.5906 5.55206 10.9637 4.72706C10.3367 3.90206 9.23751 3.71222 8.67032 3.83644C7.99415 3.98527 7.87813 4.47862 7.58165 4.4962C7.30157 4.51261 7.3836 4.19972 6.57501 3.90206C5.54024 3.5212 2.70782 4.54073 3.20938 7.26769C3.47305 8.70323 5.56485 9.92784 5.83204 10.072C6.47774 10.4189 7.58282 10.4845 7.58282 10.4845Z" fill="#FEC000"/>
<path d="M9.72178 5.98017C9.82302 5.72581 9.70279 5.43909 9.45324 5.33977C9.20369 5.24044 8.91931 5.36613 8.81807 5.62049C8.71684 5.87485 8.83707 6.16157 9.08662 6.2609C9.33617 6.36022 9.62054 6.23454 9.72178 5.98017Z" fill="#2E2F2F"/>
<path d="M5.90814 6.21002C6.16414 6.10592 6.28569 5.81011 6.17964 5.54931C6.07358 5.28851 5.78007 5.16149 5.52407 5.2656C5.26808 5.36971 5.14652 5.66552 5.25258 5.92631C5.35864 6.18711 5.65214 6.31413 5.90814 6.21002Z" fill="#2E2F2F"/>
<path d="M7.56055 6.67931C6.55977 6.64884 5.67969 7.7797 5.67969 9.65939C5.67969 11.4852 6.64766 11.9141 7.42813 11.9141C8.41836 11.9141 9.35234 11.2649 9.24336 9.49415C9.14141 7.85587 8.62695 6.71212 7.56055 6.67931Z" fill="#FFD899"/>
<path d="M6.39456 7.71298C6.29612 7.81142 6.48245 8.35048 6.64768 8.62587C6.81292 8.90126 7.28518 9.35126 7.55003 9.34072C7.8137 9.33017 8.3094 8.77939 8.46292 8.37275C8.61643 7.96611 8.66097 7.71298 8.59534 7.61337C8.52972 7.51376 7.74808 7.63564 7.45159 7.63564C7.15511 7.63564 6.49417 7.61454 6.39456 7.71298Z" fill="#2E2F2F"/>
<path d="M7.52648 8.96289C7.52648 8.96289 7.10109 9.42578 6.91594 9.49609C6.65695 9.59453 6.25617 9.51016 6.24445 9.66953C6.23391 9.83477 6.49172 10.0082 6.90422 9.95312C7.36008 9.89219 7.53117 9.61211 7.53117 9.61211C7.53117 9.61211 7.79016 9.98008 8.29055 10.0023C8.79094 10.0246 8.90695 9.70586 8.76867 9.66133C8.58117 9.60156 8.46398 9.61328 8.18039 9.52422C7.95539 9.45156 7.52648 8.96289 7.52648 8.96289Z" fill="#2E2F2F"/>
</svg>
