<svg width="15" height="15" viewBox="0 0 15 15" fill="none" xmlns="http://www.w3.org/2000/svg">
<path d="M8.09727 0.497053C7.9707 0.609553 6.98633 2.56307 6.98633 2.56307L6.25391 5.51737L9.10391 5.25604C9.10391 5.25604 11.4746 0.847443 11.5227 0.74549C11.6082 0.560334 11.6539 0.484162 11.327 0.484162C11 0.48299 8.21562 0.391584 8.09727 0.497053Z" fill="#176CC7"/>
<path d="M9.57224 5.07277C9.43044 4.9966 5.25388 4.93098 5.15544 5.07277C5.06638 5.20168 5.11677 5.87785 5.15075 5.95871C5.21169 6.09933 6.55349 6.64426 6.55349 6.64426V6.98293C6.55349 6.98293 6.64489 7.02043 7.42771 7.02043C8.21052 7.02043 8.36638 6.98058 8.36638 6.98058L8.37224 6.6548C8.37224 6.6548 9.53708 6.0548 9.59802 5.9716C9.65192 5.90246 9.71403 5.14894 9.57224 5.07277ZM8.36052 6.14387C8.36052 6.14387 8.37692 5.98215 8.29606 5.9423C8.21521 5.90129 6.81716 5.90832 6.707 5.91418C6.59685 5.92004 6.59685 6.11691 6.59685 6.11691L5.72146 5.65402L5.70622 5.49933L8.98044 5.51691L8.98747 5.72551L8.36052 6.14387Z" fill="#FCC11A"/>
<path d="M6.91797 6.0752C6.80781 6.0752 6.72461 6.19941 6.72461 6.39629C6.72461 6.58145 6.78789 6.73379 6.92734 6.72559C7.05977 6.71855 7.12305 6.55098 7.11367 6.39395C7.10195 6.20996 7.05742 6.0752 6.91797 6.0752Z" fill="#FDFFFF"/>
<path d="M3.43555 10.7915C3.43555 13.5993 5.97969 14.7677 7.66836 14.7173C9.63594 14.6587 11.7523 13.1657 11.5777 10.4868C11.4137 7.97317 9.27031 6.77317 7.42109 6.78723C5.27188 6.80247 3.43555 8.33879 3.43555 10.7915Z" fill="#F8932A"/>
<path d="M7.56056 14.2137C7.53126 14.2137 7.50079 14.2137 7.4715 14.2125C6.59259 14.1832 5.69962 13.8516 5.06447 13.2363C4.38478 12.5777 3.96525 11.7445 3.9629 10.7871C3.95704 8.27227 6.11212 7.34766 7.49845 7.34766H7.51017C9.38868 7.35586 11.0117 8.75977 11.0539 10.7391C11.0727 11.6203 10.7117 12.5531 10.0039 13.2492C9.34415 13.8973 8.37032 14.2137 7.56056 14.2137Z" fill="#FCC11A"/>
<path d="M2.9897 0.436169C2.91588 0.504138 5.73892 5.53148 5.73892 5.53148C5.73892 5.53148 6.21236 5.59242 7.26939 5.60179C8.32642 5.61117 8.85025 5.54086 8.85025 5.54086C8.85025 5.54086 6.65533 0.48656 6.52408 0.436169C6.45963 0.410388 5.5901 0.401013 4.74049 0.391638C3.8897 0.381091 3.06002 0.370544 2.9897 0.436169Z" fill="#2E9DF4"/>
<path d="M6.12711 7.89263C5.95602 7.74614 5.08531 8.18794 4.47359 9.19927C4.06344 9.87778 4.02828 10.7461 4.28961 10.7602C4.55094 10.7743 4.54742 9.91528 5.11578 9.16411C5.8025 8.2606 6.37437 8.10474 6.12711 7.89263Z" fill="#FEFFFA"/>
<path d="M7.54393 7.83984C7.31542 7.83984 6.95917 9.35039 6.67909 9.53672C6.39901 9.72305 4.94823 9.54492 4.93182 9.74883C4.91542 9.95273 6.00878 10.8012 6.13651 11.1141C6.26425 11.427 5.58456 12.8273 5.77206 12.9633C5.95839 13.0992 7.12909 12.123 7.51932 12.123C7.92596 12.123 8.97362 13.1648 9.14823 13.0219C9.33221 12.8719 8.74159 11.5031 8.83417 11.1891C8.92792 10.875 10.1994 10.2047 10.149 9.9C10.0986 9.59414 8.62206 9.82383 8.35018 9.56953C8.07831 9.31523 7.79003 7.83984 7.54393 7.83984Z" fill="#F8932A"/>
</svg>
