<svg width="15" height="15" viewBox="0 0 15 15" fill="none" xmlns="http://www.w3.org/2000/svg">
<g clip-path="url(#clip0_4903_38767)">
<path d="M9.06709 2.26363C5.48819 0.375744 2.23037 1.72106 1.05616 3.55973C0.671781 4.1609 0.399906 5.25426 0.410453 6.12145C0.431547 7.90621 1.41944 9.89489 3.55108 11.9011C6.17373 14.3691 8.8503 14.1535 9.70108 13.9461C10.7722 13.6847 11.4905 13.4621 11.3804 12.4636C11.3663 12.3324 11.2538 12.0945 11.0839 11.9902C10.539 11.6597 9.40108 11.4875 8.86553 10.6918C8.08741 9.53278 9.05537 9.47418 9.98233 9.96989C10.9749 10.5007 11.5421 10.8324 12.5382 10.741C13.2683 10.6742 14.33 10.2336 14.4741 9.00192C14.603 7.88746 12.9765 4.32613 9.06709 2.26363ZM10.5284 8.31988C10.2542 8.73707 9.57686 8.5941 9.13272 8.20035C8.68858 7.8066 8.63116 7.15035 8.91944 6.89254C9.21241 6.63121 9.76319 6.69098 10.2073 7.08473C10.6503 7.47965 10.7429 7.99176 10.5284 8.31988Z" fill="#AC5810"/>
<path d="M9.22468 1.83895C5.64577 -0.0489378 2.37975 1.41122 1.20553 3.24989C0.0301443 5.08973 0.541082 8.49637 3.70749 11.4765C6.33014 13.9444 9.00671 13.7288 9.85749 13.5214C10.9286 13.26 11.6844 12.7503 11.2133 12.0999C10.8887 11.6511 9.72507 11.3124 9.02311 10.2671C8.24499 9.10809 9.21296 9.0495 10.1399 9.5452C11.1325 10.0761 11.6997 10.4077 12.6958 10.3163C13.4258 10.2495 14.5298 9.68466 14.4969 8.54325C14.463 7.42177 13.1341 3.90262 9.22468 1.83895ZM10.8723 8.28778C10.5383 8.64872 9.82702 8.55028 9.28327 8.06981C8.74069 7.58817 8.57077 6.90614 8.90475 6.54637C9.23874 6.18544 9.95007 6.28387 10.4938 6.76434C11.0376 7.24481 11.2063 7.92802 10.8723 8.28778Z" fill="#F2A259"/>
<path d="M5.5797 9.92098C5.71447 9.57645 6.67306 9.1991 7.55431 9.82605C7.80157 10.0018 8.11095 10.4495 8.07931 11.012C7.97618 12.8495 4.96095 11.5065 5.5797 9.92098Z" fill="#EEEEEE"/>
<path d="M2.78048 6.80538C3.08869 6.31319 3.83752 6.25694 4.49259 6.68233C5.07619 7.06085 5.56369 7.99249 4.84416 8.60186C4.45861 8.92882 3.79181 8.72608 3.38049 8.41085C2.88127 8.02999 2.44884 7.33507 2.78048 6.80538Z" fill="#2686C6"/>
<path d="M6.75753 2.5103C6.85246 2.12007 7.51457 2.05327 7.98332 2.22788C8.79308 2.53022 9.15988 3.33179 8.86105 3.77827C8.42394 4.431 7.47121 4.20718 7.11027 3.83335C6.49738 3.20054 6.67785 2.83725 6.75753 2.5103Z" fill="#FFEE58"/>
<path d="M11.4501 4.42054C12.0993 4.71585 12.1837 5.18343 12.0595 5.52445C11.9821 5.73538 11.8239 6.02484 11.5005 6.05062C10.9532 6.09515 10.877 5.64281 10.4868 5.51859C10.1587 5.41429 10.0251 4.96546 10.154 4.66429C10.2735 4.38656 10.6228 4.0432 11.4501 4.42054Z" fill="#7CB342"/>
<path d="M7.84893 11.3626C7.68721 11.5091 7.12588 11.6896 6.41338 11.2443C6.17198 11.0931 5.94112 10.874 5.81104 10.5458C5.70909 10.288 5.73135 10.0396 5.77705 9.92944C5.9083 9.61186 6.10869 9.55326 6.10869 9.55326C5.90713 9.5392 5.52627 9.80639 5.46299 10.1568C5.44307 10.2669 5.30127 10.956 6.21416 11.5806C7.00049 12.1197 8.16299 12.0693 8.08682 10.9841C8.05166 11.1177 7.95205 11.2701 7.84893 11.3626Z" fill="#B0B0B0"/>
<path d="M5.18725 7.70156C5.16498 8.11992 4.67514 8.34023 4.40209 8.34141C3.62983 8.34258 2.93608 7.85742 2.88803 6.99375C2.87983 6.83906 2.956 6.61523 2.956 6.61523C2.85404 6.65859 2.7099 6.87891 2.67944 7.00312C2.49897 7.74844 3.25014 8.6168 4.04115 8.79258C4.44194 8.88164 4.94701 8.74453 5.131 8.38594C5.26225 8.13047 5.23647 7.91133 5.18725 7.70156Z" fill="#01579B"/>
<path d="M7.88985 3.83477C7.36485 3.775 7.07423 3.43164 6.99805 3.35313C6.78946 3.13516 6.66055 2.92305 6.73555 2.60898C6.75899 2.5082 6.81641 2.3793 6.88673 2.30664C6.80118 2.33477 6.6629 2.51875 6.61954 2.61836C6.57501 2.71797 6.41329 3.0918 6.76016 3.55234C6.97462 3.83828 7.34844 4.16055 7.90157 4.23789C8.29415 4.29297 8.5754 4.15234 8.80977 3.92383C8.96915 3.76797 9.03946 3.41641 8.94454 3.23477C8.95977 3.36719 8.7172 3.92969 7.88985 3.83477Z" fill="#DF7F14"/>
<path d="M12.2076 5.25547C12.1596 5.07852 12.0225 4.89453 12.0084 4.88516C12.0682 5 12.1865 5.34453 11.9381 5.67969C11.8127 5.84844 11.4354 6.05586 10.99 5.69492C10.8588 5.58828 10.7533 5.48281 10.5166 5.39609C9.91543 5.17461 10.1779 4.56289 10.3865 4.37305C10.2225 4.45859 10.0736 4.61211 10.0115 4.84648C9.9248 5.17344 10.1393 5.51563 10.465 5.67969C10.8354 5.86602 10.9549 6.22578 11.4623 6.22578C11.4881 6.22578 11.515 6.22461 11.5443 6.22227C11.8865 6.19297 12.0307 6.06055 12.135 5.89883C12.2627 5.69727 12.2662 5.46875 12.2076 5.25547Z" fill="#558B2F"/>
<path d="M3.02568 3.02232C3.29287 2.75865 3.7581 2.47975 4.43896 2.83482C4.84912 3.04811 5.32607 3.29889 5.11045 4.16607C4.97685 4.70397 4.19404 4.98873 3.54013 4.3899C3.28115 4.15318 2.29677 3.74186 3.02568 3.02232Z" fill="#F44336"/>
<path d="M5.26733 4.05039C5.27553 3.84531 5.17007 3.5957 5.13374 3.51133C5.1396 3.63437 5.24624 3.94492 4.75757 4.35625C4.58764 4.49922 4.27944 4.6082 3.94311 4.47578C3.77085 4.40781 3.52358 4.12305 3.34663 4.05156C2.68921 3.78672 2.9728 3.08242 3.06538 2.98633C2.91655 3.09062 2.78999 3.25703 2.74311 3.49961C2.68217 3.81719 2.73842 4.11719 3.17436 4.46055C4.41186 5.43672 4.79155 4.84844 4.92632 4.69844C5.09624 4.51563 5.25796 4.27656 5.26733 4.05039Z" fill="#C62828"/>
<path d="M7.70365 2.26864C7.53138 2.18778 7.03919 2.21122 6.94427 2.62137C6.88685 2.86747 7.06732 3.11707 7.23724 3.08778C7.4306 3.05497 7.32748 2.75379 7.44349 2.66825C7.62045 2.53934 7.94505 2.38231 7.70365 2.26864ZM4.07318 2.86629C3.90326 2.75379 3.36068 2.75262 3.19779 3.16864C3.09935 3.41825 3.25287 3.7077 3.43685 3.70301C3.64662 3.69832 3.54584 3.45106 3.72044 3.29403C3.94076 3.09598 4.31107 3.02332 4.07318 2.86629ZM3.99232 6.62098C3.83177 6.51903 3.35599 6.47918 3.15912 6.85184C3.01498 7.12606 3.21302 7.4284 3.38529 7.4202C3.58099 7.41082 3.51537 7.09911 3.64076 7.02879C3.83177 6.92215 4.21732 6.76395 3.99232 6.62098ZM6.7263 9.74168C6.55404 9.66082 6.06185 9.68426 5.96693 10.0944C5.90951 10.3405 6.08998 10.5901 6.2599 10.5608C6.45326 10.528 6.35013 10.2268 6.46615 10.1413C6.64193 10.0124 6.96654 9.85536 6.7263 9.74168ZM11.1419 4.45887C10.9872 4.34872 10.4986 4.28426 10.3322 4.67098C10.2326 4.90301 10.365 5.18075 10.5372 5.18192C10.7329 5.18309 10.6849 4.86903 10.815 4.80575C11.0107 4.71082 11.3587 4.61356 11.1419 4.45887Z" fill="white"/>
</g>
<defs>
<clipPath id="clip0_4903_38767">
<rect width="15" height="15" fill="white"/>
</clipPath>
</defs>
</svg>
