<svg width="15" height="15" viewBox="0 0 15 15" fill="none" xmlns="http://www.w3.org/2000/svg">
<path d="M12.3293 9.93984C12.0187 9.45703 10.4894 7.80586 10.1613 7.3793C9.83318 6.95273 8.98943 4.51992 8.17732 4.27734C7.36521 4.03359 6.56365 4.09687 5.71521 4.34766C4.86677 4.59844 4.07341 4.575 3.13122 4.30781C2.18904 4.04062 1.18357 3.41016 1.18357 3.41016C0.746458 3.74414 0.521458 4.67695 0.474583 5.99648C0.427708 7.31602 0.676145 8.0332 0.762864 8.25117C0.849583 8.46914 1.50115 8.79141 2.23474 9.35859C2.29802 9.40664 7.50583 12.9645 7.61599 13.0148C8.41169 13.377 8.91794 12.6445 8.91794 12.6445C8.91794 12.6445 9.33982 12.8859 9.74763 12.6445C10.2457 12.3492 10.1871 11.9824 10.1871 11.9824C10.1871 11.9824 10.6699 12.0609 10.9617 11.8699C11.5183 11.5055 11.339 11.0848 11.339 11.0848C11.339 11.0848 11.8359 11.2441 12.1289 10.9816C12.4218 10.7191 12.6386 10.4227 12.3293 9.93984Z" fill="#70534A"/>
<path d="M6.84303 11.9506C6.836 11.9318 6.82897 11.9131 6.81842 11.8943C6.59108 11.4549 6.15866 11.4724 6.13991 11.4572C6.1153 11.4385 6.11999 11.1103 6.09303 10.9826C5.95006 10.3135 5.17663 10.331 5.15671 10.317C5.12975 10.2994 5.27155 9.84236 4.82389 9.45681C4.71725 9.36423 4.55553 9.37361 4.41491 9.39002C4.01999 9.43806 3.83952 9.62322 3.81139 9.61736C3.7446 9.60447 3.8196 9.11463 3.33444 9.09822C2.98171 9.0865 2.75085 9.25877 2.55631 9.52595C2.3571 9.80017 2.23288 10.0779 2.45905 10.4025C2.74381 10.8115 3.05553 10.7013 3.05553 10.7013C3.05553 10.7013 2.96178 11.2017 3.24889 11.4689C3.536 11.7361 4.11491 11.7197 4.11491 11.7197C4.11491 11.7197 4.06686 12.3103 4.48405 12.5916C4.90124 12.8728 5.40163 12.6174 5.40163 12.6174C5.40163 12.6174 5.59616 13.1213 6.16452 13.0474C6.66256 12.9842 7.03171 12.4463 6.84303 11.9506Z" fill="#A56C43"/>
<path d="M12.4082 10.0926C12.3871 10.0598 12.3695 10.0328 12.3672 9.99297C12.3648 9.94844 11.1766 8.37227 10.6762 7.73828C10.777 8.02773 10.9223 8.30313 11.1074 8.54805C11.4062 8.94414 11.8258 9.31563 11.834 9.81133C11.8375 10.0551 11.7297 10.2988 11.5457 10.4594C11.3617 10.6199 11.1063 10.6949 10.8648 10.6574C10.7875 10.6457 10.6762 10.6457 10.6668 10.723C10.6633 10.7453 10.6727 10.7676 10.6797 10.7898C10.757 11.0289 10.6621 11.3078 10.4664 11.4648C10.2707 11.623 9.9918 11.6594 9.75391 11.5773C9.6918 11.5563 9.60977 11.5316 9.57109 11.5844C9.54062 11.6254 9.56055 11.6816 9.57461 11.7297C9.64844 11.9922 9.47383 12.2828 9.22305 12.3906C8.97344 12.4984 8.67461 12.4469 8.44023 12.3086C8.38867 12.2781 8.30664 12.2512 8.28086 12.3063C8.27266 12.3227 8.275 12.3426 8.27617 12.3602C8.28555 12.5418 8.2 12.727 8.05469 12.8371C7.90938 12.9473 7.70898 12.9801 7.53555 12.9215L7.49219 12.9484C7.54375 12.9789 7.58711 13.0012 7.61523 13.0141C8.41094 13.3762 8.91719 12.6438 8.91719 12.6438C8.91719 12.6438 9.33906 12.8852 9.74687 12.6438C10.2449 12.3484 10.1863 11.9816 10.1863 11.9816C10.1863 11.9816 10.6691 12.0602 10.9609 11.8691C11.5176 11.5047 11.3383 11.084 11.3383 11.084C11.3383 11.084 11.8352 11.2434 12.1281 10.9809C12.2008 10.9164 12.2699 10.8484 12.3297 10.7723C12.4469 10.6223 12.5066 10.4441 12.4668 10.2543C12.4551 10.198 12.4387 10.1406 12.4082 10.0926Z" fill="#5C4037"/>
<path d="M8.62738 12.4057C8.98128 12.626 9.12425 12.7221 9.12425 12.7221C8.99652 12.7374 8.71761 12.7901 8.05081 12.2745C7.86683 12.1327 7.13323 11.5655 7.47308 11.426C7.72386 11.3229 8.12933 12.0963 8.62738 12.4057ZM10.1766 12.0284C9.95628 12.0096 9.09144 11.5069 8.42113 10.8155C8.35081 10.7428 8.28519 10.6807 8.23011 10.628C8.16331 10.5635 8.16097 10.4569 8.22542 10.3889C8.24079 10.3729 8.25917 10.36 8.27952 10.3511C8.29986 10.3422 8.32177 10.3374 8.34398 10.3369C8.36619 10.3365 8.38827 10.3405 8.40895 10.3486C8.42963 10.3567 8.4485 10.3688 8.46449 10.3842C8.52074 10.4381 8.58636 10.5026 8.65902 10.5753C8.81136 10.7264 9.20042 11.1635 9.968 11.6909C10.1403 11.8092 10.3571 11.9288 10.5563 11.9932C10.5785 12.0003 10.3957 12.0471 10.1766 12.0284ZM11.0731 10.9995C10.6067 10.7944 10.152 10.3725 9.36917 9.36822C9.31175 9.2944 9.32113 9.18893 9.39378 9.13033C9.46644 9.07174 9.57308 9.08229 9.63167 9.15494C9.88245 9.46197 10.1403 9.76432 10.4168 10.0491C10.5258 10.1616 11.0332 10.5975 11.0977 10.6432C11.7059 11.0651 11.9555 11.0932 11.9555 11.0932C11.884 11.1225 11.6075 11.2338 11.0731 10.9995ZM1.00902 8.52096C0.956282 8.48229 1.00433 8.40025 1.06292 8.42721C1.40628 8.5819 1.88909 8.80807 2.25472 8.9944C2.59105 9.16549 2.7973 9.26744 2.7973 9.26744L2.45863 9.59674L1.00902 8.52096Z" fill="#4A2F27"/>
<path d="M14.4505 5.47808C14.277 4.32379 14.0485 3.53863 13.8786 3.34879C13.6841 3.13316 13.3501 3.56207 12.6434 3.81285C11.9368 4.06363 10.6641 4.15855 10.6641 4.15855C10.6641 4.15855 8.43876 4.15386 7.65946 4.37183C7.04423 4.5441 6.28251 5.0316 5.64267 5.41832C5.13173 5.72769 4.67118 5.93043 4.63251 6.15425C4.59618 6.36754 4.8329 6.84449 5.42118 6.89254C6.37626 6.97105 7.38641 6.36754 7.38641 6.36754C7.71337 6.18238 7.83524 6.16011 8.48798 6.16011C9.14071 6.16011 9.81337 6.65816 9.86141 6.73785C10.3489 7.54058 10.7872 7.9484 11.2349 8.49215C11.5618 8.88941 12.3306 9.94058 12.3306 9.94058C12.3306 9.94058 13.1942 8.91988 13.4145 8.68433C13.6349 8.44879 14.4516 7.8523 14.4516 7.8523C14.4516 7.8523 14.6321 6.68629 14.4505 5.47808Z" fill="#A56C43"/>
<path d="M12.3636 9.01359C12.2921 8.58468 12.0847 8.16398 12.1831 7.74327C12.1983 7.68116 12.2124 7.61905 12.2194 7.55577C12.2523 7.22062 11.9358 7.3671 11.889 7.37179C11.7683 7.38468 10.3808 7.33312 10.5355 7.49015L12.3284 9.91593C12.3284 9.91593 12.3987 9.89366 12.4151 9.72023C12.4327 9.54444 12.3694 9.04991 12.3636 9.01359Z" fill="#995E32"/>
<path d="M11.2352 7.51777L9.79492 7.01855C9.98477 7.20605 10.143 7.40879 10.3234 7.59512C10.8719 8.23379 11.7004 9.31895 12.3168 9.9377C12.3426 9.96348 12.3836 9.93066 12.3648 9.9002C12.0227 9.35996 11.1437 7.96426 11.098 7.82715C11.0113 7.56113 11.2352 7.51777 11.2352 7.51777Z" fill="#4A2F27"/>
<path d="M8.60589 6.40269C9.13909 6.49762 9.29846 6.62535 9.73557 6.95933C10.809 7.7773 11.7875 7.46676 11.9129 7.42808C12.602 7.22535 11.3492 7.22535 11.1524 7.14918C9.56917 6.77887 9.46839 5.62105 7.55003 6.14488C6.90198 6.3816 5.84495 7.23355 5.01643 6.6441C4.89807 6.55973 4.70823 6.3898 4.72932 6.20113C4.76917 5.83551 5.73714 5.61637 6.1555 5.24019C6.7262 4.7984 7.44104 4.45855 8.14065 4.27808C7.79729 4.23941 7.40706 4.31324 7.12229 4.40582C6.3594 4.65543 5.83089 5.23082 5.01878 5.55191C4.34729 5.81676 4.40471 6.04176 4.40589 6.19762C4.40706 6.35347 4.53011 6.76129 4.90159 6.96168C6.30315 7.71519 7.30276 6.16949 8.60589 6.40269ZM6.92307 12.5211C6.88089 12.6265 6.70276 12.8082 6.61018 12.8386C6.61018 12.8386 6.89026 12.2269 6.73909 11.9515C6.64651 11.7195 6.36995 11.6339 6.14143 11.6855C5.77346 11.8039 5.54378 12.3664 5.48284 12.7132C5.46643 12.8035 5.368 12.6406 5.38206 12.4589C5.4301 11.8449 5.9012 11.607 5.95276 11.0668C5.98557 10.7328 5.66565 10.4914 5.33753 10.5605C4.90979 10.6086 4.71175 11.0187 4.50667 11.3515C4.41643 11.5109 4.23362 11.8156 4.21487 11.9972C4.19846 12.1554 4.15979 12.1882 4.12229 11.9914C3.9594 11.1558 5.0094 10.4351 4.94495 9.9816C4.87698 9.50113 4.52425 9.41441 4.21956 9.55387C3.76487 9.76363 3.31956 10.5031 3.14729 10.8523C3.09807 10.9226 3.0594 11.1136 3.0594 11.1136C2.89534 10.7105 3.24807 10.175 3.42386 9.92066C3.50003 9.79176 3.66526 9.63707 3.59612 9.48004C3.48948 9.23629 3.30784 9.24215 3.16018 9.27144C2.77932 9.34762 2.35042 9.89254 2.35042 9.89254C2.33636 9.75426 2.50862 9.48004 2.64221 9.32301C2.97503 8.92222 3.69221 8.84957 3.943 9.46012C4.62503 8.99371 5.34925 9.27262 5.32229 10.1457C5.34925 10.2254 5.64807 10.1304 6.01018 10.4082C6.37346 10.6859 6.26096 11.3164 6.26096 11.3164C6.26096 11.3164 6.62425 11.355 6.82464 11.607C7.00979 11.8402 7.03909 12.2761 6.92307 12.5211ZM12.1567 9.56558C12.1567 9.56558 13.0145 8.7066 13.3227 8.50855C13.6309 8.31051 14.0809 8.0398 14.0961 8.11598C14.1114 8.19215 13.3789 8.70777 13.1035 9.03121C12.8293 9.35582 12.3676 9.8984 12.3676 9.8984L12.1567 9.56558Z" fill="#663D29"/>
</svg>
