<svg width="128" height="128" viewBox="0 0 128 128" fill="none" xmlns="http://www.w3.org/2000/svg">
<path d="M36.0002 80.4099C47.0956 80.4099 56.0902 73.1883 56.0902 64.2799C56.0902 55.3715 47.0956 48.1499 36.0002 48.1499C24.9048 48.1499 15.9102 55.3715 15.9102 64.2799C15.9102 73.1883 24.9048 80.4099 36.0002 80.4099Z" fill="white"/>
<path d="M35.9807 47.5898C17.1507 47.5898 11.0107 68.7898 13.6607 68.7898C14.4307 68.7898 15.0507 67.5198 16.0007 65.7198C16.1507 67.0998 16.5207 68.4298 17.0807 69.6898C19.5307 74.4598 24.5007 77.7198 30.2307 77.7198C38.4007 77.7198 45.0207 71.0998 45.0207 62.9298C45.0207 59.7498 44.0107 56.7998 42.3007 54.3898C55.0207 57.2998 55.8707 68.7898 58.3007 68.7898C61.0907 68.7898 54.8107 47.5898 35.9807 47.5898ZM41.0607 60.3098C40.7307 61.9698 38.8707 63.0098 36.9107 62.6198C34.9407 62.2298 33.6207 60.5698 33.9507 58.9098C34.2807 57.2498 36.1407 56.2098 38.1007 56.5998C40.0607 56.9898 41.3907 58.6498 41.0607 60.3098Z" fill="#2F2F2F"/>
<path d="M92.0002 80.4099C103.096 80.4099 112.09 73.1883 112.09 64.2799C112.09 55.3715 103.096 48.1499 92.0002 48.1499C80.9048 48.1499 71.9102 55.3715 71.9102 64.2799C71.9102 73.1883 80.9048 80.4099 92.0002 80.4099Z" fill="white"/>
<path d="M91.9807 47.5898C73.1507 47.5898 67.0107 68.7898 69.6607 68.7898C70.4307 68.7898 71.0507 67.5198 72.0007 65.7198C72.1507 67.0998 72.5207 68.4298 73.0807 69.6898C75.5307 74.4598 80.5007 77.7198 86.2307 77.7198C94.4007 77.7198 101.021 71.0998 101.021 62.9298C101.021 59.7498 100.011 56.7998 98.3007 54.3898C111.021 57.2998 111.871 68.7898 114.301 68.7898C117.091 68.7898 110.811 47.5898 91.9807 47.5898ZM97.0607 60.3098C96.7307 61.9698 94.8707 63.0098 92.9107 62.6198C90.9407 62.2298 89.6207 60.5698 89.9507 58.9098C90.2807 57.2498 92.1407 56.2098 94.1007 56.5998C96.0607 56.9898 97.3907 58.6498 97.0607 60.3098Z" fill="#2F2F2F"/>
</svg>
