<svg width="215" height="206" viewBox="0 0 215 206" fill="none" xmlns="http://www.w3.org/2000/svg">
<path fill-rule="evenodd" clip-rule="evenodd" d="M-94 103H9C9 103.334 9.00159 103.667 9.00475 104C9.54141 160.425 55.4484 206 112 206C168.552 206 214.459 160.425 214.995 104C214.998 103.667 215 103.334 215 103H214H112C112 46.1147 65.8853 0 9 0C-47.8853 0 -94 46.1147 -94 103ZM112 205C167.999 205 213.459 159.872 213.995 104H213.991H213.65H213.307H212.963H212.616H212.267H211.916H211.563H211.208H210.851H210.493H210.132H209.769H209.404H209.037H208.669H208.298H207.926H207.552H207.175H206.797H206.417H206.036H205.652H205.267H204.879H204.49H204.099H203.707H203.312H202.916H202.518H202.118H201.717H201.314H200.909H200.502H200.094H199.684H199.272H198.859H198.444H198.027H197.609H197.189H196.768H196.345H195.92H195.494H195.067H194.637H194.206H193.774H193.34H192.905H192.468H192.03H191.59H191.149H190.706H190.262H189.816H189.369H188.921H188.471H188.02H187.567H187.113H186.658H186.201H185.743H185.284H184.823H184.361H183.898H183.433H182.968H182.501H182.032H181.563H181.092H180.62H180.147H179.673H179.197H178.72H178.242H177.763H177.283H176.802H176.319H175.836H175.351H174.866H174.379H173.891H173.402H172.912H172.421H171.929H171.436H170.942H170.447H169.951H169.454H168.956H168.457H167.958H167.457H166.955H166.453H165.949H165.445H164.94H164.434H163.927H163.419H162.911H162.401H161.891H161.38H160.869H160.356H159.843H159.329H158.814H158.299H157.782H157.265H156.748H156.229H155.71H155.191H154.671H154.15H153.628H153.106H152.583H152.06H151.536H151.011H150.486H149.96H149.434H148.907H148.38H147.852H147.324H146.795H146.265H145.736H145.205H144.675H144.144H143.612H143.08H142.548H142.015H141.482H140.948H140.414H139.88H139.346H138.811H138.275H137.74H137.204H136.668H136.131H135.595H135.058H134.521H133.983H133.446H132.908H132.37H131.831H131.293H130.754H130.216H129.677H129.138H128.599H128.059H127.52H126.98H126.441H125.901H125.362H124.822H124.282H123.742H123.202H122.663H122.123H121.583H121.043H120.503H119.964H119.424H118.885H118.345H117.806H117.266H116.727H116.188H115.649H115.11H114.572H114.033H113.495H112.957H112.419H111.881H111.344H110.806H110.269H109.733H109.196H108.66H108.124H107.588H107.053H106.518H105.983H105.449H104.915H104.381H103.848H103.315H102.783H102.251H101.719H101.188H100.657H100.126H99.5964H99.067H98.538H98.0095H97.4815H96.954H96.4271H95.9006H95.3748H94.8494H94.3246H93.8005H93.2769H92.7538H92.2314H91.7097H91.1885H90.668H90.1481H89.6289H89.1104H88.5926H88.0754H87.559H87.0433H86.5283H86.014H85.5005H84.9877H84.4757H83.9645H83.4541H82.9445H82.4357H81.9277H81.4206H80.9143H80.4088H79.9043H79.4006H78.8978H78.3958H77.8949H77.3948H76.8956H76.3974H75.9002H75.4039H74.9086H74.4142H73.9209H73.4286H72.9373H72.447H71.9578H71.4696H70.9824H70.4964H70.0114H69.5275H69.0448H68.5631H68.0826H67.6032H67.1249H66.6478H66.1719H65.6971H65.2236H64.7512H64.2801H63.8102H63.3415H62.8741H62.4079H61.9429H61.4793H61.017H60.5559H60.0961H59.6377H59.1806H58.7249H58.2705H57.8174H57.3658H56.9155H56.4666H56.0191H55.5731H55.1284H54.6852H54.2435H53.8032H53.3644H52.927H52.4912H52.0569H51.624H51.1927H50.763H50.3347H49.9081H49.483H49.0595H48.6376H48.2173H47.7985H47.3814H46.966H46.5522H46.14H45.7295H45.3207H44.9136H44.5081H44.1044H43.7024H43.3021H42.9036H42.5068H42.1118H41.7185H41.3271H40.9374H40.5495H40.1635H39.7793H39.3969H39.0164H38.6377H38.2609H37.886H37.5129H37.1418H36.7726H36.4053H36.0399H35.6765H35.315H34.9556H34.5981H34.2425H33.889H33.5375H33.188H32.8405H32.4951H32.1518H31.8105H31.4712H31.1341H30.7991H30.4661H30.1353H29.8066H29.4801H29.1557H28.8335H28.5134H28.1955H27.8798H27.5664H27.2551H26.9461H26.6393H26.3347H26.0324H25.7324H25.4346H25.1392H24.846H24.5552H24.2667H23.9805H23.6966H23.4152H23.136H22.8593H22.585H22.313H22.0435H21.7763H21.5117H21.2494H20.9896H20.7323H20.4774H20.225H19.9752H19.7278H19.4829H19.2406H19.0008H18.7636H18.5289H18.2968H18.0673H17.8404H17.616H17.3943H17.1752H16.9588H16.745H16.5339H16.3254H16.1196H15.9165H15.7161H15.5184H15.3234H15.1312H14.9417H14.7549H14.571H14.3898H14.2114H14.0357H13.8629H13.693H13.5258H13.3615H13.2H13.0414H12.8857H12.7329H12.5829H12.4359H12.2918H12.1506H12.0123H11.877H11.7447H11.6153H11.4889H11.3655H11.2451H11.1277H11.0133H10.902H10.7937H10.6885H10.5864H10.4873H10.3913H10.2984H10.2086H10.122H10.0385H10.0048C10.5414 159.872 56.0007 205 112 205Z" fill="#BA68C8"/>
</svg>
