<svg width="15" height="15" viewBox="0 0 15 15" fill="none" xmlns="http://www.w3.org/2000/svg">
<g clip-path="url(#clip0_4903_38693)">
<path d="M13.2363 6.02344C13.0137 5.79492 12.7852 5.55469 12.6973 5.34961C12.6094 5.14453 12.6152 4.83984 12.6094 4.5293C12.6035 3.96094 12.5918 3.31055 12.1406 2.85938C11.6895 2.4082 11.0391 2.39648 10.4707 2.39062C10.1602 2.38477 9.84375 2.37891 9.65039 2.30273C9.45703 2.22656 9.20508 1.98633 8.97656 1.76367C8.57227 1.37695 8.10938 0.9375 7.5 0.9375C6.89062 0.9375 6.42773 1.37695 6.02344 1.76367C5.79492 1.98633 5.55469 2.21484 5.34961 2.30273C5.14453 2.39062 4.83984 2.38477 4.5293 2.39062C3.96094 2.39648 3.31055 2.4082 2.85938 2.85938C2.4082 3.31055 2.39648 3.96094 2.39062 4.5293C2.38477 4.83984 2.37891 5.15625 2.30273 5.34961C2.22656 5.54297 1.98633 5.79492 1.76367 6.02344C1.37695 6.42773 0.9375 6.89062 0.9375 7.5C0.9375 8.10938 1.37695 8.57227 1.76367 8.97656C1.98633 9.20508 2.21484 9.44531 2.30273 9.65039C2.39062 9.85547 2.38477 10.1602 2.39062 10.4707C2.39648 11.0391 2.4082 11.6895 2.85938 12.1406C3.31055 12.5918 3.96094 12.6035 4.5293 12.6094C4.83984 12.6152 5.15625 12.6211 5.34961 12.6973C5.54297 12.7734 5.79492 13.0137 6.02344 13.2363C6.42773 13.623 6.89062 14.0625 7.5 14.0625C8.10938 14.0625 8.57227 13.623 8.97656 13.2363C9.20508 13.0137 9.44531 12.7852 9.65039 12.6973C9.85547 12.6094 10.1602 12.6152 10.4707 12.6094C11.0391 12.6035 11.6895 12.5918 12.1406 12.1406C12.5918 11.6895 12.6035 11.0391 12.6094 10.4707C12.6152 10.1602 12.6211 9.84375 12.6973 9.65039C12.7734 9.45703 13.0137 9.20508 13.2363 8.97656C13.623 8.57227 14.0625 8.10938 14.0625 7.5C14.0625 6.89062 13.623 6.42773 13.2363 6.02344ZM10.4004 6.43359L6.9668 9.71484C6.87803 9.79835 6.76054 9.8445 6.63867 9.84375C6.5186 9.84421 6.40304 9.79799 6.31641 9.71484L4.59961 8.07422C4.55199 8.03267 4.51327 7.98193 4.48576 7.92504C4.45825 7.86815 4.44253 7.80628 4.43955 7.74316C4.43656 7.68003 4.44637 7.61696 4.46838 7.55772C4.49039 7.49849 4.52415 7.44431 4.56764 7.39846C4.61112 7.35261 4.66343 7.31602 4.72141 7.29089C4.77939 7.26577 4.84186 7.25263 4.90505 7.25226C4.96824 7.25189 5.03086 7.26431 5.08913 7.28876C5.1474 7.31321 5.20013 7.34918 5.24414 7.39453L6.63867 8.72461L9.75586 5.75391C9.847 5.67439 9.96536 5.63318 10.0862 5.6389C10.207 5.64461 10.3209 5.69681 10.4042 5.78458C10.4874 5.87235 10.5335 5.98889 10.5328 6.10984C10.5321 6.2308 10.4846 6.3468 10.4004 6.43359Z" fill="#D52531"/>
</g>
<defs>
<clipPath id="clip0_4903_38693">
<rect width="15" height="15" fill="white"/>
</clipPath>
</defs>
</svg>
