<svg width="30" height="30" viewBox="0 0 30 30" fill="none" xmlns="http://www.w3.org/2000/svg">
<path d="M9.60938 6.5625V2.8125C9.60938 2.62602 9.68345 2.44718 9.81532 2.31532C9.94718 2.18345 10.126 2.10938 10.3125 2.10938C10.499 2.10938 10.6778 2.18345 10.8097 2.31532C10.9415 2.44718 11.0156 2.62602 11.0156 2.8125V6.5625C11.0156 6.74898 10.9415 6.92782 10.8097 7.05968C10.6778 7.19155 10.499 7.26562 10.3125 7.26562C10.126 7.26562 9.94718 7.19155 9.81532 7.05968C9.68345 6.92782 9.60938 6.74898 9.60938 6.5625ZM14.0625 7.26562C14.249 7.26562 14.4278 7.19155 14.5597 7.05968C14.6915 6.92782 14.7656 6.74898 14.7656 6.5625V2.8125C14.7656 2.62602 14.6915 2.44718 14.5597 2.31532C14.4278 2.18345 14.249 2.10938 14.0625 2.10938C13.876 2.10938 13.6972 2.18345 13.5653 2.31532C13.4335 2.44718 13.3594 2.62602 13.3594 2.8125V6.5625C13.3594 6.74898 13.4335 6.92782 13.5653 7.05968C13.6972 7.19155 13.876 7.26562 14.0625 7.26562ZM17.8125 7.26562C17.999 7.26562 18.1778 7.19155 18.3097 7.05968C18.4415 6.92782 18.5156 6.74898 18.5156 6.5625V2.8125C18.5156 2.62602 18.4415 2.44718 18.3097 2.31532C18.1778 2.18345 17.999 2.10938 17.8125 2.10938C17.626 2.10938 17.4472 2.18345 17.3153 2.31532C17.1835 2.44718 17.1094 2.62602 17.1094 2.8125V6.5625C17.1094 6.74898 17.1835 6.92782 17.3153 7.05968C17.4472 7.19155 17.626 7.26562 17.8125 7.26562ZM28.8281 14.0625V15C28.8286 16.1598 28.3765 17.2741 27.5681 18.1057C26.7596 18.9374 25.6586 19.4208 24.4992 19.4531C23.8092 21.4894 22.5417 23.281 20.8512 24.6094H24.375C24.5615 24.6094 24.7403 24.6835 24.8722 24.8153C25.004 24.9472 25.0781 25.126 25.0781 25.3125C25.0781 25.499 25.004 25.6778 24.8722 25.8097C24.7403 25.9415 24.5615 26.0156 24.375 26.0156H3.75C3.56352 26.0156 3.38468 25.9415 3.25282 25.8097C3.12095 25.6778 3.04688 25.499 3.04688 25.3125C3.04688 25.126 3.12095 24.9472 3.25282 24.8153C3.38468 24.6835 3.56352 24.6094 3.75 24.6094H7.27383C5.95974 23.5773 4.89668 22.2608 4.16456 20.7588C3.43244 19.2568 3.0503 17.6084 3.04688 15.9375V10.3125C3.04688 10.126 3.12095 9.94718 3.25282 9.81532C3.38468 9.68345 3.56352 9.60938 3.75 9.60938H24.375C25.556 9.60938 26.6887 10.0785 27.5238 10.9137C28.359 11.7488 28.8281 12.8815 28.8281 14.0625ZM23.6719 15.9375V11.0156H4.45312V15.9375C4.45685 17.751 4.972 19.5267 5.93942 21.0607C6.90685 22.5946 8.28731 23.8246 9.92227 24.6094H18.2027C19.8377 23.8246 21.2182 22.5946 22.1856 21.0607C23.153 19.5267 23.6682 17.751 23.6719 15.9375ZM27.4219 14.0625C27.4217 13.3768 27.1902 12.7113 26.7649 12.1735C26.3396 11.6357 25.7453 11.2571 25.0781 11.0988V15.9375C25.0779 16.6313 25.0116 17.3235 24.8801 18.0047C25.5906 17.8852 26.2358 17.5179 26.7012 16.9678C27.1665 16.4177 27.4219 15.7205 27.4219 15V14.0625Z" fill="#22272E"/>
</svg>
