<svg width="231" height="55" viewBox="0 0 231 55" fill="none" xmlns="http://www.w3.org/2000/svg">
<path d="M26.1456 8.74121C26.4205 8.46509 26.5749 8.09065 26.5749 7.70022C26.5749 7.3098 26.4205 6.93535 26.1456 6.65924L19.925 0.41332C19.6484 0.14511 19.278 -0.00329908 18.8935 5.56606e-05C18.509 0.0034104 18.1412 0.158261 17.8694 0.431256C17.5975 0.704251 17.4433 1.07355 17.4399 1.4596C17.4366 1.84566 17.5844 2.21759 17.8515 2.49529L20.7755 5.43126C16.2674 5.68286 11.9455 7.32136 8.39676 10.1243C4.84801 12.9272 2.24428 16.7588 0.939081 21.0988C-0.366116 25.4387 -0.309548 30.0769 1.10111 34.3835C2.51176 38.6901 5.20816 42.4565 8.82421 45.1713C9.13535 45.4056 9.52644 45.5062 9.91145 45.451C10.2965 45.3958 10.6438 45.1892 10.8772 44.8768C11.1106 44.5644 11.2107 44.1717 11.1557 43.7852C11.1007 43.3986 10.8951 43.0498 10.5839 42.8155C7.09384 40.1959 4.60287 36.4549 3.52585 32.2155C2.44883 27.976 2.85077 23.4941 4.66472 19.516C6.47868 15.538 9.59516 12.3039 13.4952 10.3525C17.3951 8.40111 21.8432 7.85011 26.0986 8.79127L26.1456 8.74121ZM17.8515 46.2226L17.8984 46.1755C19.095 46.4405 20.3356 46.5878 21.6055 46.6172L21.5879 46.6349C21.6599 46.6256 21.7324 46.6216 21.805 46.6231C25.8254 46.665 29.7561 45.4295 33.0351 43.0932C36.314 40.757 38.7734 37.4396 40.0615 33.6153C41.3496 29.7911 41.4006 25.6558 40.207 21.8007C39.0134 17.9457 36.6365 14.5682 33.4161 12.1513C33.262 12.0353 33.1322 11.8899 33.0341 11.7235C32.936 11.5572 32.8715 11.373 32.8443 11.1816C32.817 10.9902 32.8276 10.7953 32.8754 10.6079C32.9232 10.4206 33.0073 10.2446 33.1228 10.0899C33.2383 9.93524 33.3831 9.80492 33.5488 9.7064C33.7145 9.60789 33.8979 9.54311 34.0886 9.51577C34.2792 9.48842 34.4733 9.49905 34.6599 9.54703C34.8464 9.59502 35.0217 9.67943 35.1758 9.79545C38.7918 12.5103 41.4882 16.2767 42.8989 20.5833C44.3095 24.8899 44.3661 29.528 43.0609 33.868C41.7557 38.208 39.152 42.0395 35.6032 44.8425C32.0545 47.6454 27.7326 49.2839 23.2245 49.5355L26.1456 52.4685C26.2856 52.6043 26.3973 52.7668 26.4742 52.9465C26.5511 53.1261 26.5915 53.3193 26.5932 53.5148C26.5949 53.7103 26.5578 53.9042 26.4841 54.0851C26.4103 54.2661 26.3014 54.4305 26.1637 54.5687C26.0261 54.707 25.8623 54.8163 25.6821 54.8904C25.5019 54.9644 25.3088 55.0016 25.1141 54.9999C24.9194 54.9982 24.727 54.9576 24.548 54.8805C24.3691 54.8033 24.2073 54.6911 24.0721 54.5505L17.8515 48.3075C17.7149 48.1707 17.6066 48.0083 17.5327 47.8294C17.4587 47.6505 17.4207 47.4587 17.4207 47.2651C17.4207 47.0714 17.4587 46.8796 17.5327 46.7007C17.6066 46.5219 17.7149 46.3594 17.8515 46.2226ZM28.9024 22.0222C29.039 22.159 29.1473 22.3215 29.2213 22.5004C29.2952 22.6793 29.3333 22.871 29.3333 23.0647C29.3333 23.2584 29.2952 23.4501 29.2213 23.629C29.1473 23.8079 29.039 23.9704 28.9024 24.1072L20.1039 32.9416C19.9677 33.0787 19.8059 33.1875 19.6277 33.2617C19.4496 33.3359 19.2586 33.3741 19.0657 33.3741C18.8728 33.3741 18.6818 33.3359 18.5037 33.2617C18.3255 33.1875 18.1637 33.0787 18.0275 32.9416L13.6282 28.5244C13.3528 28.2479 13.1982 27.8729 13.1982 27.4819C13.1982 27.0909 13.3528 26.7159 13.6282 26.4394C13.9036 26.163 14.277 26.0076 14.6664 26.0076C15.0558 26.0076 15.4293 26.163 15.7047 26.4394L19.0657 29.8171L26.826 22.0222C26.9622 21.8851 27.124 21.7763 27.3022 21.7021C27.4803 21.6279 27.6713 21.5897 27.8642 21.5897C28.0571 21.5897 28.2481 21.6279 28.4262 21.7021C28.6044 21.7763 28.7662 21.8851 28.9024 22.0222ZM7.33433 27.4848C7.33433 23.5798 8.8793 19.8347 11.6294 17.0734C14.3794 14.3121 18.1093 12.7609 21.9985 12.7609C25.8877 12.7609 29.6176 14.3121 32.3677 17.0734C35.1178 19.8347 36.6627 23.5798 36.6627 27.4848C36.6627 31.3899 35.1178 35.135 32.3677 37.8963C29.6176 40.6576 25.8877 42.2088 21.9985 42.2088C18.1093 42.2088 14.3794 40.6576 11.6294 37.8963C8.8793 35.135 7.33433 31.3899 7.33433 27.4848ZM21.9985 15.7057C18.8872 15.7057 15.9033 16.9467 13.7032 19.1557C11.5031 21.3647 10.2672 24.3608 10.2672 27.4848C10.2672 30.6089 11.5031 33.605 13.7032 35.814C15.9033 38.023 18.8872 39.264 21.9985 39.264C25.1099 39.264 28.0938 38.023 30.2939 35.814C32.4939 33.605 33.7299 30.6089 33.7299 27.4848C33.7299 24.3608 32.4939 21.3647 30.2939 19.1557C28.0938 16.9467 25.1099 15.7057 21.9985 15.7057Z" fill="#FFC727"/>
<path d="M66.92 41.44C65.8 41.44 64.6533 41.3467 63.48 41.16C62.3333 41 61.2267 40.76 60.16 40.44C59.12 40.12 58.1867 39.72 57.36 39.24C56.7733 38.92 56.36 38.5067 56.12 38C55.88 37.4667 55.7867 36.9333 55.84 36.4C55.92 35.8667 56.12 35.4 56.44 35C56.7867 34.5733 57.2133 34.3067 57.72 34.2C58.2533 34.0667 58.84 34.16 59.48 34.48C60.5733 35.0933 61.76 35.5467 63.04 35.84C64.3467 36.1333 65.64 36.28 66.92 36.28C68.8667 36.28 70.2533 35.9867 71.08 35.4C71.9067 34.7867 72.32 34.0267 72.32 33.12C72.32 32.3467 72.0267 31.7333 71.44 31.28C70.8533 30.8267 69.8267 30.44 68.36 30.12L63.84 29.16C61.28 28.6267 59.3733 27.72 58.12 26.44C56.8933 25.1333 56.28 23.4267 56.28 21.32C56.28 19.9867 56.56 18.7733 57.12 17.68C57.68 16.5867 58.4667 15.64 59.48 14.84C60.4933 14.04 61.6933 13.4267 63.08 13C64.4933 12.5733 66.04 12.36 67.72 12.36C69.2133 12.36 70.68 12.5467 72.12 12.92C73.56 13.2667 74.8267 13.7867 75.92 14.48C76.4533 14.8 76.8133 15.2133 77 15.72C77.2133 16.2 77.28 16.6933 77.2 17.2C77.1467 17.68 76.9467 18.1067 76.6 18.48C76.28 18.8533 75.8667 19.0933 75.36 19.2C74.8533 19.3067 74.24 19.1867 73.52 18.84C72.64 18.3867 71.7067 18.0533 70.72 17.84C69.7333 17.6267 68.72 17.52 67.68 17.52C66.56 17.52 65.6 17.6667 64.8 17.96C64.0267 18.2533 63.4267 18.6667 63 19.2C62.6 19.7333 62.4 20.3467 62.4 21.04C62.4 21.8133 62.68 22.44 63.24 22.92C63.8 23.4 64.7733 23.7867 66.16 24.08L70.68 25.04C73.2933 25.6 75.24 26.5067 76.52 27.76C77.8 28.9867 78.44 30.6133 78.44 32.64C78.44 33.9733 78.1733 35.1867 77.64 36.28C77.1067 37.3467 76.3333 38.2667 75.32 39.04C74.3067 39.8133 73.0933 40.4133 71.68 40.84C70.2667 41.24 68.68 41.44 66.92 41.44ZM90.4734 41.36C89.6734 41.36 88.9934 41.1733 88.4334 40.8C87.8734 40.4 87.4201 39.7733 87.0734 38.92L81.4334 24.96C81.1401 24.2133 81.0468 23.56 81.1534 23C81.2601 22.4133 81.5401 21.9467 81.9934 21.6C82.4734 21.2267 83.1268 21.04 83.9534 21.04C84.6468 21.04 85.2201 21.2133 85.6734 21.56C86.1268 21.88 86.5134 22.5067 86.8334 23.44L91.2334 35.16H90.3134L94.8734 22.92C95.0868 22.28 95.3934 21.8133 95.7934 21.52C96.2201 21.2 96.7668 21.04 97.4334 21.04C98.1001 21.04 98.6334 21.2 99.0334 21.52C99.4601 21.84 99.7934 22.3067 100.033 22.92L104.513 35.16H103.753L108.113 23.28C108.433 22.4267 108.847 21.84 109.353 21.52C109.86 21.2 110.407 21.04 110.993 21.04C111.74 21.04 112.313 21.2267 112.713 21.6C113.14 21.9733 113.38 22.4533 113.433 23.04C113.513 23.6267 113.407 24.2667 113.113 24.96L107.513 38.92C107.193 39.7467 106.74 40.36 106.153 40.76C105.593 41.16 104.913 41.36 104.113 41.36C103.34 41.36 102.66 41.16 102.073 40.76C101.513 40.36 101.06 39.7467 100.713 38.92L95.9134 26.44H98.5134L93.8334 38.88C93.5134 39.7067 93.0734 40.3333 92.5134 40.76C91.9534 41.16 91.2734 41.36 90.4734 41.36ZM120.687 41.32C119.7 41.32 118.94 41.04 118.407 40.48C117.9 39.8933 117.647 39.08 117.647 38.04V24.36C117.647 23.2933 117.9 22.48 118.407 21.92C118.94 21.3333 119.7 21.04 120.687 21.04C121.647 21.04 122.38 21.3333 122.887 21.92C123.42 22.48 123.687 23.2933 123.687 24.36V38.04C123.687 39.08 123.433 39.8933 122.927 40.48C122.42 41.04 121.673 41.32 120.687 41.32ZM120.687 17.76C119.567 17.76 118.7 17.5067 118.087 17C117.5 16.4667 117.207 15.72 117.207 14.76C117.207 13.7733 117.5 13.0267 118.087 12.52C118.7 11.9867 119.567 11.72 120.687 11.72C121.807 11.72 122.66 11.9867 123.247 12.52C123.833 13.0267 124.127 13.7733 124.127 14.76C124.127 15.72 123.833 16.4667 123.247 17C122.66 17.5067 121.807 17.76 120.687 17.76ZM133.71 41.36C132.723 41.36 131.963 41.0933 131.43 40.56C130.923 40.0267 130.67 39.2667 130.67 38.28V25.88H129.23C128.483 25.88 127.896 25.68 127.47 25.28C127.07 24.88 126.87 24.3333 126.87 23.64C126.87 22.8933 127.07 22.3333 127.47 21.96C127.896 21.56 128.483 21.36 129.23 21.36H132.43L130.67 22.96V21.72C130.67 18.8667 131.376 16.7333 132.79 15.32C134.23 13.9067 136.336 13.0533 139.11 12.76L140.39 12.64C141.083 12.5867 141.63 12.6933 142.03 12.96C142.456 13.2267 142.736 13.5733 142.87 14C143.003 14.4267 143.03 14.8667 142.95 15.32C142.87 15.7467 142.683 16.1333 142.39 16.48C142.123 16.8 141.75 16.9733 141.27 17L140.71 17.04C139.27 17.1467 138.243 17.4933 137.63 18.08C137.016 18.64 136.71 19.5067 136.71 20.68V22.04L135.95 21.36H139.55C140.323 21.36 140.91 21.56 141.31 21.96C141.71 22.3333 141.91 22.8933 141.91 23.64C141.91 24.3333 141.71 24.88 141.31 25.28C140.91 25.68 140.323 25.88 139.55 25.88H136.71V38.28C136.71 40.3333 135.71 41.36 133.71 41.36ZM153.691 41.44C151.851 41.44 150.305 41.1333 149.051 40.52C147.825 39.9067 146.905 39.0133 146.291 37.84C145.705 36.6667 145.411 35.1867 145.411 33.4V25.88H143.731C142.985 25.88 142.398 25.68 141.971 25.28C141.571 24.88 141.371 24.3333 141.371 23.64C141.371 22.8933 141.571 22.3333 141.971 21.96C142.398 21.56 142.985 21.36 143.731 21.36H145.411V18.32C145.411 17.3067 145.678 16.5467 146.211 16.04C146.745 15.5067 147.491 15.24 148.451 15.24C149.438 15.24 150.185 15.5067 150.691 16.04C151.198 16.5467 151.451 17.3067 151.451 18.32V21.36H155.251C155.998 21.36 156.571 21.56 156.971 21.96C157.371 22.3333 157.571 22.8933 157.571 23.64C157.571 24.3333 157.371 24.88 156.971 25.28C156.571 25.68 155.998 25.88 155.251 25.88H151.451V33.16C151.451 34.28 151.705 35.12 152.211 35.68C152.745 36.24 153.585 36.52 154.731 36.52C155.131 36.52 155.505 36.48 155.851 36.4C156.198 36.32 156.518 36.2667 156.811 36.24C157.185 36.2133 157.491 36.3333 157.731 36.6C157.971 36.84 158.091 37.3867 158.091 38.24C158.091 38.88 157.985 39.44 157.771 39.92C157.558 40.4 157.185 40.7467 156.651 40.96C156.305 41.0933 155.825 41.2 155.211 41.28C154.625 41.3867 154.118 41.44 153.691 41.44ZM167.663 41.44C166.223 41.44 164.93 41.16 163.783 40.6C162.636 40.04 161.743 39.28 161.103 38.32C160.463 37.36 160.143 36.28 160.143 35.08C160.143 33.64 160.516 32.5067 161.263 31.68C162.01 30.8267 163.223 30.2267 164.903 29.88C166.583 29.5067 168.81 29.32 171.583 29.32H173.703V32.44H171.623C170.263 32.44 169.156 32.52 168.303 32.68C167.476 32.8133 166.876 33.0533 166.503 33.4C166.156 33.7467 165.983 34.2267 165.983 34.84C165.983 35.5867 166.236 36.2 166.743 36.68C167.276 37.16 168.036 37.4 169.023 37.4C169.796 37.4 170.476 37.2267 171.063 36.88C171.676 36.5067 172.156 36.0133 172.503 35.4C172.85 34.76 173.023 34.04 173.023 33.24V28.64C173.023 27.4667 172.756 26.64 172.223 26.16C171.69 25.6533 170.783 25.4 169.503 25.4C168.783 25.4 167.996 25.4933 167.143 25.68C166.316 25.84 165.396 26.12 164.383 26.52C163.796 26.7867 163.276 26.8533 162.823 26.72C162.37 26.56 162.023 26.2933 161.783 25.92C161.543 25.52 161.423 25.0933 161.423 24.64C161.423 24.16 161.556 23.7067 161.823 23.28C162.09 22.8267 162.53 22.4933 163.143 22.28C164.396 21.7733 165.57 21.4267 166.663 21.24C167.783 21.0533 168.81 20.96 169.743 20.96C171.796 20.96 173.476 21.2667 174.783 21.88C176.116 22.4667 177.116 23.3867 177.783 24.64C178.45 25.8667 178.783 27.4533 178.783 29.4V38.28C178.783 39.2667 178.543 40.0267 178.063 40.56C177.583 41.0933 176.89 41.36 175.983 41.36C175.076 41.36 174.37 41.0933 173.863 40.56C173.383 40.0267 173.143 39.2667 173.143 38.28V36.8L173.423 37.04C173.263 37.9467 172.916 38.7333 172.383 39.4C171.876 40.04 171.223 40.5467 170.423 40.92C169.623 41.2667 168.703 41.44 167.663 41.44ZM191.169 41.44C188.795 41.44 187.022 40.7867 185.849 39.48C184.675 38.1467 184.089 36.1733 184.089 33.56V15.52C184.089 14.5067 184.342 13.7467 184.849 13.24C185.382 12.7067 186.142 12.44 187.129 12.44C188.089 12.44 188.822 12.7067 189.329 13.24C189.862 13.7467 190.129 14.5067 190.129 15.52V33.32C190.129 34.4133 190.355 35.2267 190.809 35.76C191.289 36.2667 191.915 36.52 192.689 36.52C192.902 36.52 193.102 36.5067 193.289 36.48C193.475 36.4533 193.675 36.44 193.889 36.44C194.315 36.3867 194.609 36.52 194.769 36.84C194.955 37.1333 195.049 37.7333 195.049 38.64C195.049 39.44 194.889 40.0533 194.569 40.48C194.249 40.88 193.755 41.1467 193.089 41.28C192.822 41.3067 192.515 41.3333 192.169 41.36C191.822 41.4133 191.489 41.44 191.169 41.44ZM205.289 41.44C202.916 41.44 201.142 40.7867 199.969 39.48C198.796 38.1467 198.209 36.1733 198.209 33.56V15.52C198.209 14.5067 198.462 13.7467 198.969 13.24C199.502 12.7067 200.262 12.44 201.249 12.44C202.209 12.44 202.942 12.7067 203.449 13.24C203.982 13.7467 204.249 14.5067 204.249 15.52V33.32C204.249 34.4133 204.476 35.2267 204.929 35.76C205.409 36.2667 206.036 36.52 206.809 36.52C207.022 36.52 207.222 36.5067 207.409 36.48C207.596 36.4533 207.796 36.44 208.009 36.44C208.436 36.3867 208.729 36.52 208.889 36.84C209.076 37.1333 209.169 37.7333 209.169 38.64C209.169 39.44 209.009 40.0533 208.689 40.48C208.369 40.88 207.876 41.1467 207.209 41.28C206.942 41.3067 206.636 41.3333 206.289 41.36C205.942 41.4133 205.609 41.44 205.289 41.44ZM217.142 48.56C216.449 48.56 215.876 48.3733 215.422 48C214.969 47.6267 214.702 47.1333 214.622 46.52C214.542 45.9333 214.649 45.3067 214.942 44.64L217.622 38.72V41.2L210.542 24.96C210.276 24.2667 210.182 23.6267 210.262 23.04C210.369 22.4267 210.662 21.9467 211.142 21.6C211.649 21.2267 212.342 21.04 213.222 21.04C213.942 21.04 214.516 21.2133 214.942 21.56C215.396 21.88 215.809 22.5067 216.182 23.44L220.902 35.44H219.622L224.502 23.4C224.876 22.4933 225.289 21.88 225.742 21.56C226.222 21.2133 226.862 21.04 227.662 21.04C228.356 21.04 228.902 21.2267 229.302 21.6C229.729 21.9467 229.982 22.4133 230.062 23C230.169 23.5867 230.062 24.2267 229.742 24.92L220.342 46.24C219.942 47.1467 219.489 47.76 218.982 48.08C218.502 48.4 217.889 48.56 217.142 48.56Z" fill="#003478"/>
</svg>
