<svg width="30" height="30" viewBox="0 0 30 30" fill="none" xmlns="http://www.w3.org/2000/svg">
<path d="M15 0C6.72965 0 0 6.7282 0 15C0 23.2718 6.72965 30 15 30C23.2703 30 30 23.2718 30 15C30 6.7282 23.2703 0 15 0ZM15 29.0009C7.28064 29.0009 1.00094 22.7198 1.00094 15C1.00094 7.28015 7.28064 0.999127 15 0.999127C22.7194 0.999127 28.9991 7.28015 28.9991 15C28.9991 22.7198 22.7194 29.0009 15 29.0009Z" fill="#0D2535"/>
<path d="M23.2271 10.3648C23.3309 10.1727 23.4164 9.97135 23.4825 9.76329C23.5131 9.66678 23.5137 9.56326 23.4843 9.46639C23.4548 9.36952 23.3967 9.28386 23.3175 9.22073C23.2384 9.15759 23.1419 9.11994 23.041 9.11275C22.94 9.10557 22.8392 9.12918 22.7519 9.18047C22.2726 9.46525 21.7537 9.67742 21.2121 9.81007C20.5548 9.21674 19.701 8.88782 18.8155 8.88672C18.3344 8.88709 17.8584 8.9846 17.4159 9.17342C16.9734 9.36223 16.5736 9.63845 16.2404 9.98553C15.9072 10.3326 15.6476 10.7434 15.477 11.1932C15.3064 11.6431 15.2284 12.1228 15.2477 12.6035C13.1439 12.3386 11.2227 11.274 9.88285 9.63045C9.83152 9.56819 9.76591 9.51923 9.69161 9.48775C9.6173 9.45626 9.5365 9.44318 9.45606 9.44961C9.37562 9.45604 9.29792 9.48179 9.22956 9.52467C9.1612 9.56756 9.1042 9.62631 9.0634 9.69594C8.75659 10.2226 8.58983 10.819 8.57902 11.4284C8.56821 12.0378 8.71372 12.6398 9.00166 13.177C8.93104 13.1889 8.86319 13.2136 8.80147 13.2499C8.72583 13.2982 8.66356 13.3647 8.6204 13.4433C8.57724 13.522 8.55458 13.6102 8.55451 13.6999C8.55451 14.7617 9.02691 15.7365 9.78837 16.3989L9.75563 16.4316C9.69815 16.4967 9.6586 16.5756 9.64088 16.6605C9.62316 16.7455 9.62789 16.8336 9.6546 16.9162C9.81339 17.4116 10.0785 17.8663 10.4314 18.2485C10.7843 18.6306 11.2165 18.9311 11.6976 19.1287C10.7094 19.6108 9.60349 19.7988 8.51148 19.6704C8.39923 19.6589 8.28635 19.685 8.19054 19.7446C8.09473 19.8042 8.02139 19.8939 7.98201 19.9997C7.9442 20.1062 7.94349 20.2224 7.98 20.3294C8.01651 20.4363 8.08809 20.5279 8.18313 20.589C9.66771 21.5419 11.3948 22.0481 13.1588 22.0475C18.9399 22.0475 22.3955 17.3512 22.3955 12.8112L22.3945 12.6578C22.9548 12.2203 23.4415 11.6961 23.8361 11.1048C23.8958 11.0154 23.9252 10.9092 23.9199 10.8018C23.9146 10.6944 23.8748 10.5916 23.8065 10.5086C23.7381 10.4256 23.6449 10.3668 23.5406 10.3409C23.4362 10.315 23.3263 10.3234 23.2271 10.3648ZM21.5947 12.0067C21.5269 12.0555 21.4723 12.1205 21.436 12.1958C21.3997 12.2712 21.3829 12.3544 21.3871 12.4379C21.3927 12.5614 21.3955 12.6868 21.3955 12.8103C21.3955 16.8592 18.315 21.0474 13.1597 21.0474C12.2403 21.0479 11.3273 20.8935 10.4591 20.5909C11.4989 20.3916 12.4758 19.9457 13.3075 19.2905C13.3885 19.2267 13.4478 19.1394 13.4773 19.0406C13.5067 18.9418 13.505 18.8363 13.4722 18.7385C13.4395 18.6407 13.3773 18.5555 13.2942 18.4944C13.2112 18.4333 13.1113 18.3993 13.0082 18.3971C12.6049 18.3894 12.209 18.287 11.8525 18.0982C11.496 17.9094 11.1888 17.6394 10.9558 17.3101C11.1925 17.2942 11.4245 17.2549 11.6499 17.1941C11.759 17.1649 11.855 17.0995 11.9222 17.0088C11.9895 16.918 12.0239 16.8071 12.02 16.6942C12.0161 16.5813 11.9741 16.4731 11.9007 16.3872C11.8274 16.3013 11.7271 16.2427 11.6162 16.2211C11.1607 16.1285 10.7389 15.9137 10.396 15.5998C10.0531 15.2859 9.80203 14.8846 9.66957 14.439C9.9184 14.5017 10.1738 14.5381 10.4292 14.5466C10.649 14.5456 10.8529 14.4109 10.9212 14.1995C10.9895 13.9881 10.909 13.7551 10.7229 13.6316C10.2827 13.3384 9.94383 12.9164 9.75246 12.4233C9.56109 11.9302 9.52659 11.39 9.65367 10.8766C11.2786 12.5439 13.4727 13.5368 15.7977 13.6569C15.9624 13.6578 16.1064 13.5989 16.2065 13.4782C16.3066 13.3575 16.345 13.1976 16.3094 13.0441C16.1815 12.4931 16.2387 11.9153 16.4722 11.4001C16.7058 10.8849 17.1026 10.461 17.6013 10.194C18.1 9.9271 18.6728 9.83198 19.231 9.92339C19.7892 10.0148 20.3017 10.2877 20.6892 10.6997C20.7473 10.7617 20.8202 10.8079 20.901 10.8339C20.9819 10.8599 21.068 10.8649 21.1513 10.8485C21.3057 10.8176 21.4582 10.7821 21.6088 10.7409C21.5409 10.7917 21.4703 10.8389 21.3974 10.8822C21.3003 10.9416 21.2265 11.0323 21.1879 11.1393C21.1494 11.2464 21.1484 11.3633 21.1852 11.471C21.2221 11.5786 21.2945 11.6705 21.3905 11.7315C21.4865 11.7925 21.6005 11.8189 21.7135 11.8065L21.8838 11.7849C21.79 11.8622 21.6936 11.9361 21.5947 12.0067Z" fill="#0D2535"/>
</svg>
