<svg width="14" height="18" viewBox="0 0 24 28" fill="none" xmlns="http://www.w3.org/2000/svg">
<path d="M22.0503 14.1032C21.9565 14.3844 22.0784 14.6938 22.3316 14.8344C23.3066 15.3501 23.6816 16.5407 23.194 17.5438L22.669 18.6032C22.6254 18.6947 22.562 18.7754 22.4834 18.8394L23.194 19.2266C23.6722 19.4891 23.8878 20.0329 23.7284 20.5298L21.9097 26.3235C21.7503 26.8298 21.2628 27.1485 20.7378 27.0829L18.6856 26.8523L18.6715 26.8973C18.5581 27.252 18.3096 27.5478 17.9798 27.7208C17.65 27.8937 17.2654 27.93 16.909 27.8216L16.9053 27.8207L15.0959 27.2582L15.0912 27.2573C14.7365 27.1436 14.4407 26.8949 14.2679 26.5649C14.0951 26.2349 14.0591 25.8501 14.1678 25.4938L14.1687 25.4891L16.9156 16.7048L16.9165 16.7019C17.0302 16.3474 17.2787 16.0517 17.6085 15.8788C17.9382 15.7058 18.3227 15.6695 18.6791 15.7776L18.6837 15.7785L20.4931 16.341L20.4969 16.3419C20.7984 16.4382 21.059 16.6327 21.2371 16.8944C21.4151 17.1561 21.5004 17.4699 21.4794 17.7857L21.92 16.9073C22.07 16.6073 21.9387 16.2604 21.6481 16.101C20.795 15.6323 20.3919 14.6104 20.6919 13.6729C20.9637 12.8198 21.1044 11.9198 21.1044 11.0104V10.9916C21.1044 9.95101 20.8231 8.92913 20.2981 8.03851C19.4782 6.64143 18.3069 5.48322 16.9007 4.67899C15.4946 3.87475 13.9024 3.45248 12.2825 3.45413C8.86061 3.45413 5.87936 5.29163 4.25749 8.03851C3.73249 8.92913 3.45124 9.95101 3.45124 10.9916V11.0104C3.45124 11.9198 3.59186 12.8198 3.86374 13.6729C4.17311 14.6198 3.76999 15.6323 2.90749 16.101C2.61686 16.2604 2.48561 16.6073 2.63561 16.9073L3.04436 17.7257C3.03689 17.4197 3.12876 17.1194 3.30621 16.87C3.48367 16.6205 3.73717 16.4353 4.02874 16.3419L4.03342 16.341L5.84655 15.7776C6.57874 15.5563 7.38217 15.9529 7.61092 16.7066L10.3587 25.4938C10.4671 25.8501 10.4308 26.2348 10.2579 26.5646C10.0849 26.8944 9.78908 27.1429 9.43436 27.2563L9.43061 27.2582L7.61749 27.8216C7.26118 27.93 6.87654 27.8937 6.54673 27.7208C6.21692 27.5478 5.96844 27.252 5.85499 26.8973L5.85311 26.8944L5.83999 26.8523L3.7878 27.0819C3.2628 27.1476 2.7753 26.8288 2.61592 26.3226L0.797174 20.5288C0.647174 20.0319 0.862799 19.4882 1.33155 19.2257L2.05999 18.8301C1.98633 18.7679 1.9266 18.6909 1.88467 18.6041L1.35967 17.5448C0.862799 16.551 1.24717 15.3698 2.22217 14.8448C2.4753 14.7135 2.59717 14.4041 2.50342 14.1135C1.93331 12.3422 1.86179 10.4481 2.2967 8.63888C2.73161 6.82962 3.65617 5.17499 4.96905 3.85632C6.90967 1.89695 9.50655 0.846947 12.2628 0.875072H12.2815C15.019 0.846947 17.5784 1.8782 19.5191 3.7907C21.469 5.7032 22.5378 8.27195 22.5378 11.0001C22.5378 12.0594 22.369 13.1001 22.0503 14.1032ZM17.81 16.9869L15.064 25.7666C14.989 26.0198 15.1269 26.2823 15.3762 26.3638L17.1809 26.9244C17.434 26.9994 17.6975 26.8626 17.779 26.6123L20.524 17.8326C20.5609 17.712 20.5488 17.5817 20.4904 17.47C20.432 17.3582 20.3319 17.274 20.2119 17.2354L18.4072 16.6748C18.2866 16.6379 18.1563 16.65 18.0446 16.7084C17.9328 16.7669 17.8486 16.8669 17.81 16.9869ZM6.71467 16.9804C6.67558 16.8612 6.59102 16.7622 6.47938 16.705C6.36774 16.6478 6.23803 16.6369 6.11842 16.6748L4.31374 17.2354C4.19369 17.274 4.09365 17.3582 4.03523 17.47C3.97682 17.5817 3.96472 17.712 4.00155 17.8326L6.74655 26.6113C6.78513 26.7316 6.86955 26.8327 6.98151 26.8912C7.09347 26.9496 7.22396 26.9616 7.34467 26.9244L9.14936 26.3638C9.26941 26.3252 9.36945 26.241 9.42787 26.1292C9.48628 26.0175 9.49838 25.8872 9.46155 25.7666L6.71561 16.9851L6.71467 16.9804Z" fill="#22272E"/>
</svg>
