<svg width="37" height="37" viewBox="0 0 37 37" fill="none" xmlns="http://www.w3.org/2000/svg">
<path d="M19.1704 7.98971C19.1643 6.4839 18.5626 5.04168 17.4968 3.97799C16.4309 2.9143 14.9875 2.31556 13.4816 2.31252C12.8125 2.27677 12.143 2.37509 11.5124 2.6017C10.8818 2.8283 10.3028 3.17862 9.80952 3.63209C9.31619 4.08556 8.91845 4.63304 8.63966 5.24236C8.36086 5.85168 8.20663 6.51057 8.18602 7.18033H11.4466C11.471 6.93879 11.5433 6.70454 11.6593 6.49126C11.7753 6.27798 11.9326 6.08995 12.122 5.93816C12.3115 5.78637 12.5293 5.67387 12.7628 5.60722C12.9962 5.54058 13.2406 5.52114 13.4816 5.55002C14.1277 5.55306 14.7465 5.81108 15.2034 6.26795C15.6603 6.72482 15.9183 7.3436 15.9213 7.98971C15.9213 9.34252 14.9385 10.441 12.4526 10.441H3.5957V13.69H12.4526C16.6382 13.69 19.1704 11.1347 19.1704 7.98971ZM19.1704 7.98971C19.1643 6.4839 18.5626 5.04168 17.4968 3.97799C16.4309 2.9143 14.9875 2.31556 13.4816 2.31252C12.8125 2.27677 12.143 2.37509 11.5124 2.6017C10.8818 2.8283 10.3028 3.17862 9.80952 3.63209C9.31619 4.08556 8.91845 4.63304 8.63966 5.24236C8.36086 5.85168 8.20663 6.51057 8.18602 7.18033H11.4466C11.471 6.93879 11.5433 6.70454 11.6593 6.49126C11.7753 6.27798 11.9326 6.08995 12.122 5.93816C12.3115 5.78637 12.5293 5.67387 12.7628 5.60722C12.9962 5.54058 13.2406 5.52114 13.4816 5.55002C14.1277 5.55306 14.7465 5.81108 15.2034 6.26795C15.6603 6.72482 15.9183 7.3436 15.9213 7.98971C15.9213 9.34252 14.9385 10.441 12.4526 10.441H3.5957V13.69H12.4526C16.6382 13.69 19.1704 11.1347 19.1704 7.98971Z" fill="url(#paint0_linear_804_90)"/>
<path d="M26.3973 29.0103C26.3912 30.5181 25.788 31.9621 24.7196 33.0261C23.6513 34.0901 22.2048 34.6875 20.697 34.6875C20.0279 34.7217 19.3587 34.6218 18.7287 34.3937C18.0987 34.1657 17.5206 33.8141 17.0284 33.3596C16.5362 32.905 16.1397 32.3567 15.8623 31.7469C15.5849 31.137 15.4321 30.4778 15.413 29.8081H18.662C18.6865 30.0501 18.7587 30.2848 18.8746 30.4986C18.9904 30.7125 19.1475 30.9012 19.3367 31.0539C19.526 31.2066 19.7437 31.3203 19.9772 31.3883C20.2107 31.4563 20.4554 31.4772 20.697 31.45C21.3421 31.4469 21.9596 31.1886 22.4147 30.7314C22.8697 30.2742 23.1252 29.6554 23.1252 29.0103C23.1252 27.6575 21.8995 26.5937 19.6564 26.5937H9.83984V23.31H19.6564C23.8652 23.31 26.3973 25.8653 26.3973 29.0103ZM26.3973 29.0103C26.3912 30.5181 25.788 31.9621 24.7196 33.0261C23.6513 34.0901 22.2048 34.6875 20.697 34.6875C20.0279 34.7217 19.3587 34.6218 18.7287 34.3937C18.0987 34.1657 17.5206 33.8141 17.0284 33.3596C16.5362 32.905 16.1397 32.3567 15.8623 31.7469C15.5849 31.137 15.4321 30.4778 15.413 29.8081H18.662C18.6865 30.0501 18.7587 30.2848 18.8746 30.4986C18.9904 30.7125 19.1475 30.9012 19.3367 31.0539C19.526 31.2066 19.7437 31.3203 19.9772 31.3883C20.2107 31.4563 20.4554 31.4772 20.697 31.45C21.3421 31.4469 21.9596 31.1886 22.4147 30.7314C22.8697 30.2742 23.1252 29.6554 23.1252 29.0103C23.1252 27.6575 21.8995 26.5937 19.6564 26.5937H9.83984V23.31H19.6564C23.8652 23.31 26.3973 25.8653 26.3973 29.0103Z" fill="url(#paint1_linear_804_90)"/>
<path d="M27.2526 7.31905C26.4273 7.30544 25.608 7.46126 24.8453 7.77686C24.0826 8.09245 23.3928 8.56113 22.8185 9.15391C22.2441 9.74669 21.7974 10.451 21.5061 11.2232C21.2147 11.9955 21.0848 12.8193 21.1245 13.6437H24.0035C23.9943 13.2219 24.0734 12.8028 24.2356 12.4133C24.3978 12.0238 24.6396 11.6724 24.9455 11.3818C25.2514 11.0912 25.6146 10.8676 26.0119 10.7255C26.4092 10.5834 26.8318 10.5258 27.2526 10.5565C27.6568 10.5316 28.0616 10.5959 28.4382 10.7447C28.8149 10.8936 29.1542 11.1234 29.4322 11.418C29.7102 11.7125 29.9201 12.0646 30.0469 12.4492C30.1738 12.8338 30.2145 13.2416 30.1663 13.6437C30.1663 15.4244 28.906 16.8928 25.472 16.8928H3.5957V20.1534H25.9576C31.0451 20.1534 33.4038 16.8812 33.4038 13.6437C33.4524 12.8152 33.3279 11.9857 33.0382 11.2079C32.7486 10.4301 32.3002 9.72121 31.7216 9.12625C31.1429 8.53129 30.4467 8.06334 29.6773 7.7522C28.9079 7.44106 28.0821 7.29354 27.2526 7.31905Z" fill="url(#paint2_linear_804_90)"/>
<path d="M7.86227 23.31H3.5957V26.5937H7.86227V23.31Z" fill="url(#paint3_linear_804_90)"/>
<defs>
<linearGradient id="paint0_linear_804_90" x1="7.64258" y1="4.12783" x2="26.4432" y2="33.7741" gradientUnits="userSpaceOnUse">
<stop offset="0.08" stop-color="#54C8F1"/>
<stop offset="0.57" stop-color="#41A2EF"/>
<stop offset="1" stop-color="#3386EE"/>
</linearGradient>
<linearGradient id="paint1_linear_804_90" x1="4.77547" y1="5.94312" x2="23.5761" y2="35.5894" gradientUnits="userSpaceOnUse">
<stop offset="0.08" stop-color="#54C8F1"/>
<stop offset="0.57" stop-color="#41A2EF"/>
<stop offset="1" stop-color="#3386EE"/>
</linearGradient>
<linearGradient id="paint2_linear_804_90" x1="10.0823" y1="2.58998" x2="28.8713" y2="32.2362" gradientUnits="userSpaceOnUse">
<stop offset="0.08" stop-color="#54C8F1"/>
<stop offset="0.57" stop-color="#41A2EF"/>
<stop offset="1" stop-color="#3386EE"/>
</linearGradient>
<linearGradient id="paint3_linear_804_90" x1="-3.13367" y1="10.9612" x2="15.6554" y2="40.6075" gradientUnits="userSpaceOnUse">
<stop offset="0.08" stop-color="#54C8F1"/>
<stop offset="0.57" stop-color="#41A2EF"/>
<stop offset="1" stop-color="#3386EE"/>
</linearGradient>
</defs>
</svg>
